<?xml version="1.0" standalone="no"?>
<!DOCTYPE svg PUBLIC "-//W3C//DTD SVG 1.1//EN" "http://www.w3.org/Graphics/SVG/1.1/DTD/svg11.dtd" >
<svg xmlns="http://www.w3.org/2000/svg">
<metadata>
<json>
{
	"fontFamily": "icomoon",
	"majorVersion": 1,
	"minorVersion": 0,
	"version": "Version 1.0",
	"fontId": "icomoon",
	"psName": "icomoon",
	"subFamily": "Regular",
	"fullName": "icomoon",
	"description": "Font generated by IcoMoon."
}
</json>
</metadata>
<defs>
<font id="icomoon" horiz-adv-x="1024">
<font-face units-per-em="1024" ascent="960" descent="-64" />
<missing-glyph horiz-adv-x="1024" />
<glyph unicode="&#x20;" d="" horiz-adv-x="512" />
<glyph unicode="&#xe600;" d="M832-64h-652.8c-12.8 0-25.6 6.4-38.4 12.8-6.4 12.8-12.8 25.6-12.8 44.8v908.8c0 12.8 6.4 25.6 12.8 38.4 12.8 12.8 25.6 19.2 38.4 19.2h428.8c12.8 0 32-6.4 44.8-12.8 19.2-6.4 32-19.2 38.4-25.6l160-172.8c12.8-12.8 19.2-25.6 25.6-44.8 12.8-19.2 19.2-51.2 19.2-64v-640c0-12.8-6.4-38.4-12.8-44.8-12.8-12.8-32-19.2-51.2-19.2zM640 896v-192h192l-192 192zM832 640h-192l-64 64v192h-384v-896h646.4l-6.4 640zM345.6 352h102.4v198.4c0 6.4 0 12.8 6.4 19.2s6.4 6.4 12.8 6.4h83.2c6.4 0 12.8 0 19.2-6.4s6.4-12.8 6.4-19.2v-198.4h96c6.4 0 25.6 6.4 25.6 0 6.4-12.8 0-19.2-6.4-32l-166.4-179.2c0-6.4-6.4-12.8-12.8-12.8s-12.8 0-19.2 6.4l-166.4 172.8c-6.4 6.4-6.4 19.2-6.4 32 6.4 6.4 12.8 12.8 25.6 12.8z" data-tags="ZelenaPosta_Icon_PrijateUploadnute" />
<glyph unicode="&#xe601;" d="M832-64h-652.8c-12.8 0-25.6 6.4-38.4 12.8-6.4 12.8-12.8 25.6-12.8 44.8v908.8c0 12.8 6.4 25.6 12.8 38.4 12.8 12.8 25.6 19.2 38.4 19.2h428.8c12.8 0 32-6.4 44.8-12.8 19.2-6.4 32-19.2 38.4-25.6l160-172.8c12.8-12.8 19.2-25.6 25.6-44.8 12.8-19.2 19.2-51.2 19.2-64v-640c0-12.8-6.4-38.4-12.8-44.8-12.8-12.8-32-19.2-51.2-19.2zM640 896v-192h192l-192 192zM832 640h-192l-64 64v192h-384v-896h646.4l-6.4 640z" data-tags="ZelenaPosta_Icon_PrijateDorucenePostou2" />
<glyph unicode="&#xe602;" d="M512 768c-223.318 0-416.882-130.042-512-320 95.118-189.958 288.682-320 512-320 223.314 0 416.878 130.042 512 320-95.116 189.958-288.686 320-512 320zM764.45 598.296c60.162-38.374 111.142-89.774 149.434-150.296-38.292-60.522-89.274-111.922-149.436-150.298-75.594-48.216-162.89-73.702-252.448-73.702-89.56 0-176.856 25.486-252.45 73.704-60.16 38.372-111.14 89.772-149.434 150.296 38.292 60.524 89.274 111.924 149.434 150.296 3.918 2.5 7.876 4.922 11.858 7.3-9.958-27.328-15.408-56.822-15.408-87.596 0-141.384 114.616-256 256-256s256 114.616 256 256c0 30.774-5.45 60.268-15.408 87.598 3.98-2.378 7.938-4.802 11.858-7.302zM512 550c0-53.020-42.98-96-96-96s-96 42.98-96 96 42.98 96 96 96 96-42.98 96-96z" data-tags="eye, views, vision, visit" />
<glyph unicode="&#xe603;" d="M832 192l96 96-441.6 185.6 185.6-441.6 96 96 160-160 64 64zM512 832h128v-128h-128v128zM256 128v128h-128c25.6-51.2 70.4-102.4 128-128zM704 832v-128h128c-25.6 51.2-70.4 102.4-128 128zM128 448h128v-128h-128v128zM704 640h128v-128h-128v128zM320 832h128v-128h-128v128zM320 128h128v128h-128zM128 640h128v-128h-128v128zM128 704h128v128c-51.2-25.6-102.4-70.4-128-128z" data-tags="ZelenaPosta_Icon_Select" />
<glyph unicode="&#xe604;" d="M537.6 640c89.6 0 160 70.4 166.4 160 0 89.6-64 160-153.6 160s-166.4-70.4-166.4-160c0-89.6 64-160 153.6-160zM448 576h-224c-51.2 0-96-38.4-96-96s44.8-96 96-96h147.2l-51.2-345.6c0-57.6 38.4-102.4 89.6-102.4s89.6 38.4 102.4 89.6l57.6 345.6c38.4 211.2-121.6 204.8-121.6 204.8zM800 384c51.2 0 96 38.4 96 96s-44.8 96-96 96h-313.6c0 0 185.6-6.4 153.6-192h128z" data-tags="ZelenaPosta_Icon_Tipos" />
<glyph unicode="&#xe605;" d="M832 32v704h-320v224h-320v-928h-128v-96h896v96h-128zM288 864h128v-832h-128v832zM512 32v608h224v-608h-224zM320 832h64v-64h-64v64zM320 736h64v-64h-64v64zM320 640h64v-64h-64v64zM544 608h64v-64h-64v64zM640 608h64v-64h-64v64zM544 512h64v-64h-64v64zM640 512h64v-64h-64v64zM640 416h64v-64h-64v64z" data-tags="ZelenaPosta_Icon_DigitalneMesto" />
<glyph unicode="&#xe606;" d="M1014.662 137.34c-0.004 0.004-0.008 0.008-0.012 0.010l-310.644 310.65 310.644 310.65c0.004 0.004 0.008 0.006 0.012 0.010 3.344 3.346 5.762 7.254 7.312 11.416 4.246 11.376 1.824 24.682-7.324 33.83l-146.746 146.746c-9.148 9.146-22.45 11.566-33.828 7.32-4.16-1.55-8.070-3.968-11.418-7.31 0-0.004-0.004-0.006-0.008-0.010l-310.648-310.652-310.648 310.65c-0.004 0.004-0.006 0.006-0.010 0.010-3.346 3.342-7.254 5.76-11.414 7.31-11.38 4.248-24.682 1.826-33.83-7.32l-146.748-146.748c-9.148-9.148-11.568-22.452-7.322-33.828 1.552-4.16 3.97-8.072 7.312-11.416 0.004-0.002 0.006-0.006 0.010-0.010l310.65-310.648-310.65-310.652c-0.002-0.004-0.006-0.006-0.008-0.010-3.342-3.346-5.76-7.254-7.314-11.414-4.248-11.376-1.826-24.682 7.322-33.83l146.748-146.746c9.15-9.148 22.452-11.568 33.83-7.322 4.16 1.552 8.070 3.97 11.416 7.312 0.002 0.004 0.006 0.006 0.010 0.010l310.648 310.65 310.648-310.65c0.004-0.002 0.008-0.006 0.012-0.008 3.348-3.344 7.254-5.762 11.414-7.314 11.378-4.246 24.684-1.826 33.828 7.322l146.746 146.748c9.148 9.148 11.57 22.454 7.324 33.83-1.552 4.16-3.97 8.068-7.314 11.414z" data-tags="close, cancel, quit, remove, cross" />
<glyph unicode="&#xe608;" d="M877.254 557.254l-320 320c-24.992 24.994-65.514 24.994-90.508 0l-320-320c-24.994-24.994-24.994-65.516 0-90.51 24.994-24.996 65.516-24.996 90.51 0l210.744 210.746v-613.49c0-35.346 28.654-64 64-64s64 28.654 64 64v613.49l210.746-210.746c12.496-12.496 28.876-18.744 45.254-18.744s32.758 6.248 45.254 18.746c24.994 24.994 24.994 65.514 0 90.508z" data-tags="arrow-up, upload, top" />
<glyph unicode="&#xe609;" d="M621.254 82.746l320 320c24.994 24.992 24.994 65.516 0 90.51l-320 320c-24.994 24.992-65.516 24.992-90.51 0-24.994-24.994-24.994-65.516 0-90.51l210.746-210.746h-613.49c-35.346 0-64-28.654-64-64s28.654-64 64-64h613.49l-210.746-210.746c-12.496-12.496-18.744-28.876-18.744-45.254s6.248-32.758 18.744-45.254c24.994-24.994 65.516-24.994 90.51 0z" data-tags="arrow-right, right, next" />
<glyph unicode="&#xe60a;" d="M146.746 338.746l320-320c24.992-24.994 65.516-24.994 90.51 0l320 320c24.992 24.994 24.992 65.516 0 90.51-24.994 24.994-65.516 24.994-90.51 0l-210.746-210.746v613.49c0 35.346-28.654 64-64 64s-64-28.654-64-64v-613.49l-210.746 210.746c-12.496 12.496-28.876 18.744-45.254 18.744s-32.758-6.248-45.254-18.744c-24.994-24.994-24.994-65.516 0-90.51z" data-tags="arrow-down, download, bottom" />
<glyph unicode="&#xe60b;" d="M402.746 813.254l-320-320c-24.994-24.992-24.994-65.516 0-90.508l320-320c24.994-24.992 65.516-24.992 90.51 0 24.996 24.992 24.996 65.516 0 90.508l-210.748 210.746h613.492c35.346 0 64 28.652 64 64 0 35.346-28.654 64-64 64h-613.492l210.746 210.746c12.496 12.496 18.746 28.876 18.746 45.254s-6.248 32.758-18.744 45.254c-24.996 24.994-65.516 24.994-90.51 0z" data-tags="arrow-left, left, previous" />
<glyph unicode="&#xf002;" d="M0 475.428q0 81.714 31.714 156.286t85.714 128.571 128.571 85.714 156.286 31.714 156.286-31.714 128.571-85.714 85.714-128.571 31.714-156.286q0-125.714-70.857-228l196-196q21.143-21.143 21.143-51.429 0-29.714-21.714-51.429t-51.429-21.714q-30.857 0-51.429 21.714l-196 195.429q-102.286-70.857-228-70.857-81.714 0-156.286 31.714t-128.571 85.714-85.714 128.571-31.714 156.286zM146.286 475.428q0-105.714 75.143-180.857t180.857-75.143 180.857 75.143 75.143 180.857-75.143 180.857-180.857 75.143-180.857-75.143-75.143-180.857z" horiz-adv-x="951" data-tags="search" />
<glyph unicode="&#xf003;" d="M0 91.428v621.714q0 37.714 26.857 64.571t64.571 26.857h841.143q37.714 0 64.571-26.857t26.857-64.571v-621.714q0-37.714-26.857-64.571t-64.571-26.857h-841.143q-37.714 0-64.571 26.857t-26.857 64.571zM73.143 91.428q0-7.429 5.429-12.857t12.857-5.429h841.143q7.429 0 12.857 5.429t5.429 12.857v438.857q-18.286-20.571-39.429-37.714-153.143-117.714-243.429-193.143-29.143-24.571-47.429-38.286t-49.429-27.714-58.571-14h-1.143q-27.429 0-58.571 14t-49.429 27.714-47.429 38.286q-90.286 75.429-243.429 193.143-21.143 17.143-39.429 37.714v-438.857zM73.143 713.143q0-96 84-162.286 110.286-86.857 229.143-181.143 3.429-2.857 20-16.857t26.286-21.429 25.429-18 28.857-15.714 24.571-5.143h1.143q11.429 0 24.571 5.143t28.857 15.714 25.429 18 26.286 21.429 20 16.857q118.857 94.286 229.143 181.143 30.857 24.571 57.429 66t26.571 75.143v14t-0.286 7.429-1.714 7.143-3.143 5.143-5.143 4.286-8 1.429h-841.143q-7.429 0-12.857-5.429t-5.429-12.857z" data-tags="envelope-o" />
<glyph unicode="&#xf007;" d="M0 148q0 30.286 2 59.143t8 62.286 15.143 62 24.571 55.714 35.429 46.286 48.857 30.571 63.714 11.429q5.143 0 24-12.286t42.571-27.429 61.714-27.429 76.286-12.286 76.286 12.286 61.714 27.429 42.571 27.429 24 12.286q34.857 0 63.714-11.429t48.857-30.571 35.429-46.286 24.571-55.714 15.143-62 8-62.286 2-59.143q0-68.571-41.714-108.286t-110.857-39.714h-499.429q-69.143 0-110.857 39.714t-41.714 108.286zM182.857 658.286q0 90.857 64.286 155.143t155.143 64.286 155.143-64.286 64.286-155.143-64.286-155.143-155.143-64.286-155.143 64.286-64.286 155.143z" horiz-adv-x="805" data-tags="user" />
<glyph unicode="&#xf00c;" d="M69.143 420.571q0 22.857 16 38.857l77.714 77.714q16 16 38.857 16t38.857-16l168-168.571 374.857 375.429q16 16 38.857 16t38.857-16l77.714-77.714q16-16 16-38.857t-16-38.857l-491.429-491.429q-16-16-38.857-16t-38.857 16l-284.571 284.571q-16 16-16 38.857z" data-tags="check" />
<glyph unicode="&#xf00d;" d="M62.857 195.428q0 22.857 16 38.857l168 168-168 168q-16 16-16 38.857t16 38.857l77.714 77.714q16 16 38.857 16t38.857-16l168-168 168 168q16 16 38.857 16t38.857-16l77.714-77.714q16-16 16-38.857t-16-38.857l-168-168 168-168q16-16 16-38.857t-16-38.857l-77.714-77.714q-16-16-38.857-16t-38.857 16l-168 168-168-168q-16-16-38.857-16t-38.857 16l-77.714 77.714q-16 16-16 38.857z" horiz-adv-x="805" data-tags="times" />
<glyph unicode="&#xf013;" d="M0 376.571v126.857q0 6.857 4.571 13.143t10.857 7.429l106.286 16q8 26.286 22.286 52.571-22.857 32.571-61.143 78.857-5.714 6.857-5.714 13.714 0 5.714 5.143 13.143 14.857 20.571 56.286 61.429t54 40.857q7.429 0 14.857-5.714l78.857-61.143q25.143 13.143 52 21.714 9.143 77.714 16.571 106.286 4 16 20.571 16h126.857q8 0 14-4.857t6.571-12.286l16-105.143q28-9.143 51.429-21.143l81.143 61.143q5.143 5.143 13.714 5.143 7.429 0 14.286-5.714 73.714-68 94.286-97.143 4-4.571 4-12.571 0-6.857-4.571-13.143-8.571-12-29.143-38t-30.857-40.286q14.857-28.571 23.429-56l104.571-16q7.429-1.143 12-7.143t4.571-13.429v-126.857q0-6.857-4.571-13.143t-11.429-7.429l-105.714-16q-10.857-30.857-22.286-52 20-28.571 61.143-78.857 5.714-6.857 5.714-14.286t-5.143-13.143q-15.429-21.143-56.571-61.714t-53.714-40.571q-6.857 0-14.857 5.143l-78.857 61.714q-25.143-13.143-52-21.714-9.143-77.714-16.571-106.286-4-16-20.571-16h-126.857q-8 0-14 4.857t-6.571 12.286l-16 105.143q-28 9.143-51.429 21.143l-80.571-61.143q-5.714-5.143-14.286-5.143-8 0-14.286 6.286-72 65.143-94.286 96-4 5.714-4 13.143 0 6.857 4.571 13.143 8.571 12 29.143 38t30.857 40.286q-15.429 28.571-23.429 56.571l-104.571 15.429q-7.429 1.143-12 7.143t-4.571 13.429zM292.571 438.857q0-60.571 42.857-103.429t103.429-42.857 103.429 42.857 42.857 103.429-42.857 103.429-103.429 42.857-103.429-42.857-42.857-103.429z" data-tags="gear, cog" />
<glyph unicode="&#xf014;" d="M0 676.571v36.571q0 8 5.143 13.143t13.143 5.143h176.571l40 95.429q8.571 21.143 30.857 36t45.143 14.857h182.857q22.857 0 45.143-14.857t30.857-36l40-95.429h176.571q8 0 13.143-5.143t5.143-13.143v-36.571q0-8-5.143-13.143t-13.143-5.143h-54.857v-541.714q0-47.429-26.857-82t-64.571-34.571h-475.429q-37.714 0-64.571 33.429t-26.857 80.857v544h-54.857q-8 0-13.143 5.143t-5.143 13.143zM146.286 116.571q0-12.571 4-23.143t8.286-15.429 6-4.857h475.429q1.714 0 6 4.857t8.286 15.429 4 23.143v541.714h-512v-541.714zM219.429 201.143v329.143q0 8 5.143 13.143t13.143 5.143h36.571q8 0 13.143-5.143t5.143-13.143v-329.143q0-8-5.143-13.143t-13.143-5.143h-36.571q-8 0-13.143 5.143t-5.143 13.143zM274.286 731.428h256l-27.429 66.857q-4 5.143-9.714 6.286h-181.143q-5.714-1.143-9.714-6.286zM365.714 201.143v329.143q0 8 5.143 13.143t13.143 5.143h36.571q8 0 13.143-5.143t5.143-13.143v-329.143q0-8-5.143-13.143t-13.143-5.143h-36.571q-8 0-13.143 5.143t-5.143 13.143zM512 201.143v329.143q0 8 5.143 13.143t13.143 5.143h36.571q8 0 13.143-5.143t5.143-13.143v-329.143q0-8-5.143-13.143t-13.143-5.143h-36.571q-8 0-13.143 5.143t-5.143 13.143z" horiz-adv-x="805" data-tags="trash-o" />
<glyph unicode="&#xf017;" d="M0 438.857q0 119.429 58.857 220.286t159.714 159.714 220.286 58.857 220.286-58.857 159.714-159.714 58.857-220.286-58.857-220.286-159.714-159.714-220.286-58.857-220.286 58.857-159.714 159.714-58.857 220.286zM128 438.857q0-84.571 41.714-156t113.143-113.143 156-41.714 156 41.714 113.143 113.143 41.714 156-41.714 156-113.143 113.143-156 41.714-156-41.714-113.143-113.143-41.714-156zM292.571 384v36.571q0 8 5.143 13.143t13.143 5.143h128v201.143q0 8 5.143 13.143t13.143 5.143h36.571q8 0 13.143-5.143t5.143-13.143v-256q0-8-5.143-13.143t-13.143-5.143h-182.857q-8 0-13.143 5.143t-5.143 13.143z" data-tags="clock-o" />
<glyph unicode="&#xf019;" d="M0 128v182.857q0 22.857 16 38.857t38.857 16h265.714l77.143-77.714q33.143-32 77.714-32t77.714 32l77.714 77.714h265.143q22.857 0 38.857-16t16-38.857v-182.857q0-22.857-16-38.857t-38.857-16h-841.143q-22.857 0-38.857 16t-16 38.857zM185.714 636q9.714 22.286 33.714 22.286h146.286v256q0 14.857 10.857 25.714t25.714 10.857h146.286q14.857 0 25.714-10.857t10.857-25.714v-256h146.286q24 0 33.714-22.286 9.714-23.429-8-40l-256-256q-10.286-10.857-25.714-10.857t-25.714 10.857l-256 256q-17.714 16.571-8 40zM658.286 182.857q0-14.857 10.857-25.714t25.714-10.857 25.714 10.857 10.857 25.714-10.857 25.714-25.714 10.857-25.714-10.857-10.857-25.714zM804.571 182.857q0-14.857 10.857-25.714t25.714-10.857 25.714 10.857 10.857 25.714-10.857 25.714-25.714 10.857-25.714-10.857-10.857-25.714z" horiz-adv-x="951" data-tags="download" />
<glyph unicode="&#xf024;" d="M36.571 804.571q0 30.286 21.429 51.714t51.714 21.429 51.714-21.429 21.429-51.714q0-41.143-36.571-62.857v-723.429q0-7.429-5.429-12.857t-12.857-5.429h-36.571q-7.429 0-12.857 5.429t-5.429 12.857v723.429q-36.571 21.714-36.571 62.857zM182.857 256v424q0 18.286 17.714 31.429 12 8 45.143 24.571 134.857 68.571 240.571 68.571 61.143 0 114.286-16.571t125.143-50.286q21.714-10.857 50.286-10.857 30.857 0 67.143 12t62.857 26.857 50.286 26.857 31.143 12q14.857 0 25.714-10.857t10.857-25.714v-436q0-14.286-7.143-22t-22.571-15.714q-122.857-66.286-210.857-66.286-34.857 0-70.571 12.571t-62 27.429-66 27.429-81.429 12.571q-109.714 0-265.143-83.429-9.714-5.143-18.857-5.143-14.857 0-25.714 10.857t-10.857 25.714z" data-tags="flag" />
<glyph unicode="&#xf02f;" d="M0 164.571v237.714q0 45.143 32.286 77.429t77.429 32.286h36.571v310.857q0 22.857 16 38.857t38.857 16h384q22.857 0 50.286-11.429t43.429-27.429l86.857-86.857q16-16 27.429-43.429t11.429-50.286v-146.286h36.571q45.143 0 77.429-32.286t32.286-77.429v-237.714q0-7.429-5.429-12.857t-12.857-5.429h-128v-91.429q0-22.857-16-38.857t-38.857-16h-548.571q-22.857 0-38.857 16t-16 38.857v91.429h-128q-7.429 0-12.857 5.429t-5.429 12.857zM219.429 73.143h512v146.286h-512v-146.286zM219.429 438.857h512v219.429h-91.429q-22.857 0-38.857 16t-16 38.857v91.429h-365.714v-365.714zM804.571 402.286q0-14.857 10.857-25.714t25.714-10.857 25.714 10.857 10.857 25.714-10.857 25.714-25.714 10.857-25.714-10.857-10.857-25.714z" horiz-adv-x="951" data-tags="print" />
<glyph unicode="&#xf040;" d="M0 0v237.714l475.429 475.429 237.714-237.714-475.429-475.429h-237.714zM73.143 146.286h73.143v-73.143h61.143l52 52-134.286 134.286-52-52v-61.143zM170.286 292.571q0-12.571 12.571-12.571 5.714 0 9.714 4l309.714 309.714q4 4 4 9.714 0 12.571-12.571 12.571-5.714 0-9.714-4l-309.714-309.714q-4-4-4-9.714zM512 749.714l94.857 94.286q20.571 21.714 51.429 21.714 30.286 0 52-21.714l134.286-133.714q21.143-22.286 21.143-52 0-30.286-21.143-51.429l-94.857-94.857z" data-tags="pencil" />
<glyph unicode="&#xf054;" d="M51.429 146.286q0 14.857 10.857 25.714l303.429 303.429-303.429 303.429q-10.857 10.857-10.857 25.714t10.857 25.714l94.857 94.857q10.857 10.857 25.714 10.857t25.714-10.857l424-424q10.857-10.857 10.857-25.714t-10.857-25.714l-424-424q-10.857-10.857-25.714-10.857t-25.714 10.857l-94.857 94.857q-10.857 10.857-10.857 25.714z" horiz-adv-x="731" data-tags="chevron-right" />
<glyph unicode="&#xf05a;" d="M0 438.857q0 119.429 58.857 220.286t159.714 159.714 220.286 58.857 220.286-58.857 159.714-159.714 58.857-220.286-58.857-220.286-159.714-159.714-220.286-58.857-220.286 58.857-159.714 159.714-58.857 220.286zM292.571 164.571q0-8 5.143-13.143t13.143-5.143h256q8 0 13.143 5.143t5.143 13.143v91.429q0 8-5.143 13.143t-13.143 5.143h-54.857v292.571q0 8-5.143 13.143t-13.143 5.143h-182.857q-8 0-13.143-5.143t-5.143-13.143v-91.429q0-8 5.143-13.143t13.143-5.143h54.857v-182.857h-54.857q-8 0-13.143-5.143t-5.143-13.143v-91.429zM365.714 676.571q0-8 5.143-13.143t13.143-5.143h109.714q8 0 13.143 5.143t5.143 13.143v91.429q0 8-5.143 13.143t-13.143 5.143h-109.714q-8 0-13.143-5.143t-5.143-13.143v-91.429z" data-tags="info-circle" />
<glyph unicode="&#xf073;" d="M0 0v731.429q0 29.714 21.714 51.429t51.429 21.714h73.143v54.857q0 37.714 26.857 64.571t64.571 26.857h36.571q37.714 0 64.571-26.857t26.857-64.571v-54.857h219.429v54.857q0 37.714 26.857 64.571t64.571 26.857h36.571q37.714 0 64.571-26.857t26.857-64.571v-54.857h73.143q29.714 0 51.429-21.714t21.714-51.429v-731.429q0-29.714-21.714-51.429t-51.429-21.714h-804.571q-29.714 0-51.429 21.714t-21.714 51.429zM73.143 0h164.571v164.571h-164.571v-164.571zM73.143 201.143h164.571v182.857h-164.571v-182.857zM73.143 420.571h164.571v164.571h-164.571v-164.571zM219.429 694.857q0-7.429 5.429-12.857t12.857-5.429h36.571q7.429 0 12.857 5.429t5.429 12.857v164.571q0 7.429-5.429 12.857t-12.857 5.429h-36.571q-7.429 0-12.857-5.429t-5.429-12.857v-164.571zM274.286 0h182.857v164.571h-182.857v-164.571zM274.286 201.143h182.857v182.857h-182.857v-182.857zM274.286 420.571h182.857v164.571h-182.857v-164.571zM493.714 0h182.857v164.571h-182.857v-164.571zM493.714 201.143h182.857v182.857h-182.857v-182.857zM493.714 420.571h182.857v164.571h-182.857v-164.571zM658.286 694.857q0-7.429 5.429-12.857t12.857-5.429h36.571q7.429 0 12.857 5.429t5.429 12.857v164.571q0 7.429-5.429 12.857t-12.857 5.429h-36.571q-7.429 0-12.857-5.429t-5.429-12.857v-164.571zM713.143 0h164.571v164.571h-164.571v-164.571zM713.143 201.143h164.571v182.857h-164.571v-182.857zM713.143 420.571h164.571v164.571h-164.571v-164.571z" horiz-adv-x="951" data-tags="calendar" />
<glyph unicode="&#xf077;" d="M51.429 216.286q0 15.143 10.857 26l424 423.429q10.857 10.857 25.714 10.857t25.714-10.857l424-423.429q10.857-10.857 10.857-26t-10.857-26l-94.857-94.286q-10.857-10.857-25.714-10.857t-25.714 10.857l-303.429 303.429-303.429-303.429q-10.857-10.857-25.714-10.857t-25.714 10.857l-94.857 94.286q-10.857 10.857-10.857 26z" data-tags="chevron-up" />
<glyph unicode="&#xf078;" d="M51.429 515.143q0 15.143 10.857 26l94.857 94.286q10.857 10.857 25.714 10.857t25.714-10.857l303.429-303.429 303.429 303.429q10.857 10.857 25.714 10.857t25.714-10.857l94.857-94.286q10.857-10.857 10.857-26t-10.857-26l-424-423.429q-10.857-10.857-25.714-10.857t-25.714 10.857l-424 423.429q-10.857 10.857-10.857 26z" data-tags="chevron-down" />
<glyph unicode="&#xf080;" d="M365.714 438.857v-292.571h-146.286v292.571h146.286zM585.143 731.428v-585.143h-146.286v585.143h146.286zM1170.286 73.143v-73.143h-1170.286v877.714h73.143v-804.571h1097.143zM804.571 585.143v-438.857h-146.286v438.857h146.286zM1024 804.571v-658.286h-146.286v658.286h146.286z" horiz-adv-x="1170" data-tags="bar-chart, bar-chart-o" />
<glyph unicode="&#xf081;" d="M0 164.571v548.571q0 68 48.286 116.286t116.286 48.286h548.571q68 0 116.286-48.286t48.286-116.286v-548.571q0-68-48.286-116.286t-116.286-48.286h-548.571q-68 0-116.286 48.286t-48.286 116.286zM146.286 236.571q84.571-53.714 184-53.714 64 0 120 20.286t96 54.286 68.857 78.286 42.857 92.571 14 96.286q0 10.286-0.571 15.429 36 25.714 60 62.286-32-14.286-69.143-19.429 38.857 22.857 53.143 66.857-37.143-21.714-76.571-29.143-34.857 37.714-87.429 37.714-49.714 0-84.857-35.143t-35.143-84.857q0-16.571 2.857-27.429-73.714 4-138.286 37.143t-109.714 88.571q-16.571-28.571-16.571-60.571 0-65.143 52-100-26.857 0.571-57.143 14.857v-1.143q0-42.857 28.571-76.286t70.286-41.429q-16.571-4.571-29.143-4.571-7.429 0-22.286 2.286 12-36 42.571-59.429t69.429-24q-66.286-51.429-149.143-51.429-14.857 0-28.571 1.714z" data-tags="twitter-square" />
<glyph unicode="&#xf082;" d="M0 164.571v548.571q0 68 48.286 116.286t116.286 48.286h548.571q68 0 116.286-48.286t48.286-116.286v-548.571q0-68-48.286-116.286t-116.286-48.286h-109.714v347.429h116l17.143 128h-133.143v81.714q0 30.857 16 47.429t54.857 16.571l75.429 0.571v118.286q-54.857 5.143-102.857 5.143-77.714 0-124.571-46t-46.857-128.857v-94.857h-128v-128h128v-347.429h-310.857q-68 0-116.286 48.286t-48.286 116.286z" data-tags="facebook-square" />
<glyph unicode="&#xf08c;" d="M0 164.571v548.571q0 68 48.286 116.286t116.286 48.286h548.571q68 0 116.286-48.286t48.286-116.286v-548.571q0-68-48.286-116.286t-116.286-48.286h-548.571q-68 0-116.286 48.286t-48.286 116.286zM127.429 661.714q0-29.143 20.286-48.857t52.857-19.714h0.571q33.714 0 54.286 19.714t20.571 48.857q-0.571 29.714-20.571 49.143t-53.143 19.429-54-19.429-20.857-49.143zM135.429 142.857h132v396.571h-132v-396.571zM340 142.857h132v221.714q0 21.714 4 32 8.571 20 25.714 34t42.286 14q66.286 0 66.286-89.714v-212h132v227.429q0 88-41.714 133.143t-110.286 45.143q-77.714 0-119.429-66.857h1.143v57.714h-132q1.714-37.714 0-396.571z" data-tags="linkedin-square" />
<glyph unicode="&#xf093;" d="M0 54.857v182.857q0 22.857 16 38.857t38.857 16h244q12-32 40.286-52.571t63.143-20.571h146.286q34.857 0 63.143 20.571t40.286 52.571h244q22.857 0 38.857-16t16-38.857v-182.857q0-22.857-16-38.857t-38.857-16h-841.143q-22.857 0-38.857 16t-16 38.857zM185.714 608q-9.714 22.286 8 39.429l256 256q10.286 10.857 25.714 10.857t25.714-10.857l256-256q17.714-17.143 8-39.429-9.714-22.857-33.714-22.857h-146.286v-256q0-14.857-10.857-25.714t-25.714-10.857h-146.286q-14.857 0-25.714 10.857t-10.857 25.714v256h-146.286q-24 0-33.714 22.857zM658.286 109.714q0-14.857 10.857-25.714t25.714-10.857 25.714 10.857 10.857 25.714-10.857 25.714-25.714 10.857-25.714-10.857-10.857-25.714zM804.571 109.714q0-14.857 10.857-25.714t25.714-10.857 25.714 10.857 10.857 25.714-10.857 25.714-25.714 10.857-25.714-10.857-10.857-25.714z" horiz-adv-x="951" data-tags="upload" />
<glyph unicode="&#xf0a2;" d="M0 146.286q108.571 92 164 227.143t55.429 284.857q0 94.286 54.857 149.714t150.857 66.857q-4.571 10.286-4.571 21.143 0 22.857 16 38.857t38.857 16 38.857-16 16-38.857q0-10.857-4.571-21.143 96-11.429 150.857-66.857t54.857-149.714q0-149.714 55.429-284.857t164-227.143q0-29.714-21.714-51.429t-51.429-21.714h-256q0-60.571-42.857-103.429t-103.429-42.857-103.429 42.857-42.857 103.429h-256q-29.714 0-51.429 21.714t-21.714 51.429zM104.571 146.286h741.714q-93.714 103.429-140.857 235.143t-47.143 276.857q0 146.286-182.857 146.286t-182.857-146.286q0-145.143-47.143-276.857t-140.857-235.143zM374.857 73.143q0-41.714 29.429-71.143t71.143-29.429q9.143 0 9.143 9.143t-9.143 9.143q-33.714 0-58 24.286t-24.286 58q0 9.143-9.143 9.143t-9.143-9.143z" horiz-adv-x="951" data-tags="bell-o" />
<glyph unicode="&#xf0c1;" d="M9.143 694.857q0 68.571 48.571 116l84 83.429q47.429 47.429 116 47.429 69.143 0 116.571-48.571l117.714-118.286q47.429-47.429 47.429-116 0-70.286-50.286-119.429l50.286-50.286q49.143 50.286 118.857 50.286 68.571 0 116.571-48l118.857-118.857q48-48 48-116.571t-48.571-116l-84-83.429q-47.429-47.429-116-47.429-69.143 0-116.571 48.571l-117.714 118.286q-47.429 47.429-47.429 116 0 70.286 50.286 119.429l-50.286 50.286q-49.143-50.286-118.857-50.286-68.571 0-116.571 48l-118.857 118.857q-48 48-48 116.571zM118.857 694.857q0-22.857 16-38.857l118.857-118.857q15.429-15.429 38.857-15.429 24 0 41.143 17.714-1.714 1.714-10.857 10.571t-12.286 12.286-8.571 10.857-7.429 14.571-2 15.714q0 22.857 16 38.857t38.857 16q8.571 0 15.714-2t14.571-7.429 10.857-8.571 12.286-12.286 10.571-10.857q18.857 17.714 18.857 41.714 0 22.857-16 38.857l-117.714 118.286q-16 16-38.857 16-22.286 0-38.857-15.429l-84-83.429q-16-16-16-38.286zM520.571 292q0-22.857 16-38.857l117.714-118.286q15.429-15.429 38.857-15.429 22.857 0 38.857 14.857l84 83.429q16 16 16 38.286 0 22.857-16 38.857l-118.857 118.857q-16 16-38.857 16-24 0-41.143-18.286 1.714-1.714 10.857-10.571t12.286-12.286 8.571-10.857 7.429-14.571 2-15.714q0-22.857-16-38.857t-38.857-16q-8.571 0-15.714 2t-14.571 7.429-10.857 8.571-12.286 12.286-10.571 10.857q-18.857-17.714-18.857-41.714z" horiz-adv-x="951" data-tags="chain, link" />
<glyph unicode="&#xf0c5;" d="M969.143 731.428q22.857 0 38.857-16t16-38.857v-694.857q0-22.857-16-38.857t-38.857-16h-548.571q-22.857 0-38.857 16t-16 38.857v164.571h-310.857q-22.857 0-38.857 16t-16 38.857v384q0 22.857 11.429 50.286t27.429 43.429l233.143 233.143q16 16 43.429 27.429t50.286 11.429h237.714q22.857 0 38.857-16t16-38.857v-187.429q38.857 22.857 73.143 22.857h237.714zM658.286 609.714l-170.857-170.857h170.857v170.857zM292.571 829.143l-170.857-170.857h170.857v170.857zM404.571 459.428l180.571 180.571v237.714h-219.429v-237.714q0-22.857-16-38.857t-38.857-16h-237.714v-365.714h292.571v146.286q0 22.857 11.429 50.286t27.429 43.429zM950.857 0v658.286h-219.429v-237.714q0-22.857-16-38.857t-38.857-16h-237.714v-365.714h512z" data-tags="copy, files-o" />
<glyph unicode="&#xf0c9;" d="M0 109.714v73.143q0 14.857 10.857 25.714t25.714 10.857h804.571q14.857 0 25.714-10.857t10.857-25.714v-73.143q0-14.857-10.857-25.714t-25.714-10.857h-804.571q-14.857 0-25.714 10.857t-10.857 25.714zM0 402.286v73.143q0 14.857 10.857 25.714t25.714 10.857h804.571q14.857 0 25.714-10.857t10.857-25.714v-73.143q0-14.857-10.857-25.714t-25.714-10.857h-804.571q-14.857 0-25.714 10.857t-10.857 25.714zM0 694.857v73.143q0 14.857 10.857 25.714t25.714 10.857h804.571q14.857 0 25.714-10.857t10.857-25.714v-73.143q0-14.857-10.857-25.714t-25.714-10.857h-804.571q-14.857 0-25.714 10.857t-10.857 25.714z" data-tags="navicon, reorder, bars" />
<glyph unicode="&#xf0d4;" d="M0 164.571v548.571q0 68 48.286 116.286t116.286 48.286h548.571q68 0 116.286-48.286t48.286-116.286v-548.571q0-68-48.286-116.286t-116.286-48.286h-548.571q-68 0-116.286 48.286t-48.286 116.286zM157.714 249.714q0-24.571 10.571-44.286t27.714-32.286 39.429-21.143 44.286-12 43.714-3.429q34.286 0 68.857 8.857t64.857 26.286 49.143 47.143 18.857 66.857q0 28-11.429 51.143t-28 38-33.143 27.143-28 25.143-11.429 25.429 8.857 24.286 21.429 22.571 25.143 24 21.429 34 8.857 47.143q0 34.286-12.857 56.857t-41.429 51.714h47.429l50.286 36.571h-151.429q-48.571 0-92-18.286t-72.857-56-29.429-87.429q0-53.143 36.857-88.286t90.571-35.143q12.571 0 24.571 1.714-7.429-16.571-7.429-30.857 0-25.143 22.857-53.714-100-6.857-146.857-36-26.857-16.571-43.143-41.714t-16.286-54.286zM225.714 266.286q0 26.286 14.286 45.714t37.429 29.429 46.857 14.286 48.286 4.286q11.429 0 17.714-1.143 1.143-0.571 13.143-9.429t14.857-10.857 13.143-10.286 14-12.571 10.857-12.857 9.714-14.857 5.143-15.143 2.571-18q0-43.429-33.429-64.286t-79.714-20.857q-23.429 0-46 5.429t-43.143 16.286-33.143 30.286-12.571 44.571zM264 626.857q0 34.857 18.286 59.429t52.571 24.571q30.286 0 53.429-25.714t33.143-57.714 10-61.143q0-34.286-18.857-56.857t-52.571-22.571q-30.286 0-53.143 24.286t-32.857 55.143-10 60.571zM548.571 457.143h73.143v-91.429h36.571v91.429h73.143v36.571h-73.143v73.143h-36.571v-73.143h-73.143v-36.571z" data-tags="google-plus-square" />
<glyph unicode="&#xf0d7;" d="M0 548.571q0 14.857 10.857 25.714t25.714 10.857h512q14.857 0 25.714-10.857t10.857-25.714-10.857-25.714l-256-256q-10.857-10.857-25.714-10.857t-25.714 10.857l-256 256q-10.857 10.857-10.857 25.714z" horiz-adv-x="585" data-tags="caret-down" />
<glyph unicode="&#xf0d8;" d="M0 256q0 14.857 10.857 25.714l256 256q10.857 10.857 25.714 10.857t25.714-10.857l256-256q10.857-10.857 10.857-25.714t-10.857-25.714-25.714-10.857h-512q-14.857 0-25.714 10.857t-10.857 25.714z" horiz-adv-x="585" data-tags="caret-up" />
<glyph unicode="&#xf0d9;" d="M36.571 438.857q0 14.857 10.857 25.714l256 256q10.857 10.857 25.714 10.857t25.714-10.857 10.857-25.714v-512q0-14.857-10.857-25.714t-25.714-10.857-25.714 10.857l-256 256q-10.857 10.857-10.857 25.714z" horiz-adv-x="366" data-tags="caret-left" />
<glyph unicode="&#xf0da;" d="M0 182.857v512q0 14.857 10.857 25.714t25.714 10.857 25.714-10.857l256-256q10.857-10.857 10.857-25.714t-10.857-25.714l-256-256q-10.857-10.857-25.714-10.857t-25.714 10.857-10.857 25.714z" horiz-adv-x="366" data-tags="caret-right" />
<glyph unicode="&#xf0eb;" d="M0 621.714q0 56.571 25.429 105.429t66.857 81.143 93.714 50.857 106.571 18.571 106.571-18.571 93.714-50.857 66.857-81.143 25.429-105.429q0-88.571-58.857-153.143-25.714-28-42.571-49.714t-34-54.571-19.429-61.429q26.857-16 26.857-46.857 0-21.143-14.286-36.571 14.286-15.429 14.286-36.571 0-29.714-25.714-46.286 7.429-13.143 7.429-26.857 0-26.286-18-40.571t-44.286-14.286q-11.429-25.143-34.286-40t-49.714-14.857-49.714 14.857-34.286 40q-26.286 0-44.286 14.286t-18 40.571q0 13.714 7.429 26.857-25.714 16.571-25.714 46.286 0 21.143 14.286 36.571-14.286 15.429-14.286 36.571 0 30.857 26.857 46.857-2.286 28.571-19.429 61.429t-34 54.571-42.571 49.714q-58.857 64.571-58.857 153.143zM73.143 621.714q0-57.714 38.857-102.857 5.714-6.286 17.429-18.857t17.429-18.857q73.143-87.429 80.571-170.286h130.286q7.429 82.857 80.571 170.286 5.714 6.286 17.429 18.857t17.429 18.857q38.857 45.143 38.857 102.857 0 41.143-19.714 76.571t-51.429 58-70.286 35.429-78 12.857-78-12.857-70.286-35.429-51.429-58-19.714-76.571zM274.286 694.857q0 7.429 5.429 12.857t12.857 5.429q28.571 0 56.857-9.143t49.714-30.857 21.429-51.429q0-7.429-5.429-12.857t-12.857-5.429-12.857 5.429-5.429 12.857q0 26.286-30.857 40.571t-60.571 14.286q-7.429 0-12.857 5.429t-5.429 12.857z" horiz-adv-x="585" data-tags="lightbulb-o" />
<glyph unicode="&#xf0f3;" d="M0 146.286q108.571 92 164 227.143t55.429 284.857q0 94.286 54.857 149.714t150.857 66.857q-4.571 10.286-4.571 21.143 0 22.857 16 38.857t38.857 16 38.857-16 16-38.857q0-10.857-4.571-21.143 96-11.429 150.857-66.857t54.857-149.714q0-149.714 55.429-284.857t164-227.143q0-29.714-21.714-51.429t-51.429-21.714h-256q0-60.571-42.857-103.429t-103.429-42.857-103.429 42.857-42.857 103.429h-256q-29.714 0-51.429 21.714t-21.714 51.429zM374.857 73.143q0-41.714 29.429-71.143t71.143-29.429q9.143 0 9.143 9.143t-9.143 9.143q-33.714 0-58 24.286t-24.286 58q0 9.143-9.143 9.143t-9.143-9.143z" horiz-adv-x="951" data-tags="bell" />
<glyph unicode="&#xf0f6;" d="M0-18.286v914.286q0 22.857 16 38.857t38.857 16h512q22.857 0 50.286-11.429t43.429-27.429l178.286-178.286q16-16 27.429-43.429t11.429-50.286v-658.286q0-22.857-16-38.857t-38.857-16h-768q-22.857 0-38.857 16t-16 38.857zM73.143 0h731.429v585.143h-237.714q-22.857 0-38.857 16t-16 38.857v237.714h-438.857v-877.714zM219.429 164.571v36.571q0 8 5.143 13.143t13.143 5.143h402.286q8 0 13.143-5.143t5.143-13.143v-36.571q0-8-5.143-13.143t-13.143-5.143h-402.286q-8 0-13.143 5.143t-5.143 13.143zM219.429 310.857v36.571q0 8 5.143 13.143t13.143 5.143h402.286q8 0 13.143-5.143t5.143-13.143v-36.571q0-8-5.143-13.143t-13.143-5.143h-402.286q-8 0-13.143 5.143t-5.143 13.143zM219.429 457.143v36.571q0 8 5.143 13.143t13.143 5.143h402.286q8 0 13.143-5.143t5.143-13.143v-36.571q0-8-5.143-13.143t-13.143-5.143h-402.286q-8 0-13.143 5.143t-5.143 13.143zM585.143 658.286h214.857q-5.714 16.571-12.571 23.429l-178.857 178.857q-6.857 6.857-23.429 12.571v-214.857z" data-tags="file-text-o" />
<glyph unicode="&#xf100;" d="M25.714 402.286q0 7.429 5.714 13.143l266.286 266.286q5.714 5.714 13.143 5.714t13.143-5.714l28.571-28.571q5.714-5.714 5.714-13.143t-5.714-13.143l-224.571-224.571 224.571-224.571q5.714-5.714 5.714-13.143t-5.714-13.143l-28.571-28.571q-5.714-5.714-13.143-5.714t-13.143 5.714l-266.286 266.286q-5.714 5.714-5.714 13.143zM245.143 402.286q0 7.429 5.714 13.143l266.286 266.286q5.714 5.714 13.143 5.714t13.143-5.714l28.571-28.571q5.714-5.714 5.714-13.143t-5.714-13.143l-224.571-224.571 224.571-224.571q5.714-5.714 5.714-13.143t-5.714-13.143l-28.571-28.571q-5.714-5.714-13.143-5.714t-13.143 5.714l-266.286 266.286q-5.714 5.714-5.714 13.143z" horiz-adv-x="585" data-tags="angle-double-left" />
<glyph unicode="&#xf101;" d="M7.429 164.571q0 7.429 5.714 13.143l224.571 224.571-224.571 224.571q-5.714 5.714-5.714 13.143t5.714 13.143l28.571 28.571q5.714 5.714 13.143 5.714t13.143-5.714l266.286-266.286q5.714-5.714 5.714-13.143t-5.714-13.143l-266.286-266.286q-5.714-5.714-13.143-5.714t-13.143 5.714l-28.571 28.571q-5.714 5.714-5.714 13.143zM226.857 164.571q0 7.429 5.714 13.143l224.571 224.571-224.571 224.571q-5.714 5.714-5.714 13.143t5.714 13.143l28.571 28.571q5.714 5.714 13.143 5.714t13.143-5.714l266.286-266.286q5.714-5.714 5.714-13.143t-5.714-13.143l-266.286-266.286q-5.714-5.714-13.143-5.714t-13.143 5.714l-28.571 28.571q-5.714 5.714-5.714 13.143z" horiz-adv-x="585" data-tags="angle-double-right" />
<glyph unicode="&#xf102;" d="M44 201.143q0 7.429 5.714 13.143l266.286 266.286q5.714 5.714 13.143 5.714t13.143-5.714l266.286-266.286q5.714-5.714 5.714-13.143t-5.714-13.143l-28.571-28.571q-5.714-5.714-13.143-5.714t-13.143 5.714l-224.571 224.571-224.571-224.571q-5.714-5.714-13.143-5.714t-13.143 5.714l-28.571 28.571q-5.714 5.714-5.714 13.143zM44 420.571q0 7.429 5.714 13.143l266.286 266.286q5.714 5.714 13.143 5.714t13.143-5.714l266.286-266.286q5.714-5.714 5.714-13.143t-5.714-13.143l-28.571-28.571q-5.714-5.714-13.143-5.714t-13.143 5.714l-224.571 224.571-224.571-224.571q-5.714-5.714-13.143-5.714t-13.143 5.714l-28.571 28.571q-5.714 5.714-5.714 13.143z" horiz-adv-x="658" data-tags="angle-double-up" />
<glyph unicode="&#xf103;" d="M44 457.143q0 7.429 5.714 13.143l28.571 28.571q5.714 5.714 13.143 5.714t13.143-5.714l224.571-224.571 224.571 224.571q5.714 5.714 13.143 5.714t13.143-5.714l28.571-28.571q5.714-5.714 5.714-13.143t-5.714-13.143l-266.286-266.286q-5.714-5.714-13.143-5.714t-13.143 5.714l-266.286 266.286q-5.714 5.714-5.714 13.143zM44 676.571q0 7.429 5.714 13.143l28.571 28.571q5.714 5.714 13.143 5.714t13.143-5.714l224.571-224.571 224.571 224.571q5.714 5.714 13.143 5.714t13.143-5.714l28.571-28.571q5.714-5.714 5.714-13.143t-5.714-13.143l-266.286-266.286q-5.714-5.714-13.143-5.714t-13.143 5.714l-266.286 266.286q-5.714 5.714-5.714 13.143z" horiz-adv-x="658" data-tags="angle-double-down" />
<glyph unicode="&#xf109;" d="M0 128v54.857h1097.143v-54.857q0-22.857-26.857-38.857t-64.571-16h-914.286q-37.714 0-64.571 16t-26.857 38.857zM146.286 310.857v402.286q0 37.714 26.857 64.571t64.571 26.857h621.714q37.714 0 64.571-26.857t26.857-64.571v-402.286q0-37.714-26.857-64.571t-64.571-26.857h-621.714q-37.714 0-64.571 26.857t-26.857 64.571zM219.429 310.857q0-7.429 5.429-12.857t12.857-5.429h621.714q7.429 0 12.857 5.429t5.429 12.857v402.286q0 7.429-5.429 12.857t-12.857 5.429h-621.714q-7.429 0-12.857-5.429t-5.429-12.857v-402.286zM493.714 137.143q0-9.143 9.143-9.143h91.429q9.143 0 9.143 9.143t-9.143 9.143h-91.429q-9.143 0-9.143-9.143z" horiz-adv-x="1097" data-tags="laptop" />
<glyph unicode="&#xf10b;" d="M0 146.286v585.143q0 29.714 21.714 51.429t51.429 21.714h292.571q29.714 0 51.429-21.714t21.714-51.429v-585.143q0-29.714-21.714-51.429t-51.429-21.714h-292.571q-29.714 0-51.429 21.714t-21.714 51.429zM54.857 237.714q0-7.429 5.429-12.857t12.857-5.429h292.571q7.429 0 12.857 5.429t5.429 12.857v402.286q0 7.429-5.429 12.857t-12.857 5.429h-292.571q-7.429 0-12.857-5.429t-5.429-12.857v-402.286zM164.571 722.286q0-9.143 9.143-9.143h91.429q9.143 0 9.143 9.143t-9.143 9.143h-91.429q-9.143 0-9.143-9.143zM173.714 146.286q0-18.857 13.429-32.286t32.286-13.429 32.286 13.429 13.429 32.286-13.429 32.286-32.286 13.429-32.286-13.429-13.429-32.286z" horiz-adv-x="439" data-tags="mobile-phone, mobile" />
<glyph unicode="&#xf110;" d="M0 438.857q0 37.714 26.857 64.571t64.571 26.857 64.571-26.857 26.857-64.571-26.857-64.571-64.571-26.857-64.571 26.857-26.857 64.571zM100.571 694.857q0 41.714 29.429 71.143t71.143 29.429 71.143-29.429 29.429-71.143-29.429-71.143-71.143-29.429-71.143 29.429-29.429 71.143zM118.857 182.857q0 34.286 24 58.286t58.286 24q33.714 0 58-24t24.286-58.286-24.286-58.286-58-24q-34.286 0-58.286 24t-24 58.286zM347.429 804.571q0 45.714 32 77.714t77.714 32 77.714-32 32-77.714-32-77.714-77.714-32-77.714 32-32 77.714zM384 73.143q0 30.286 21.429 51.714t51.714 21.429 51.714-21.429 21.429-51.714-21.429-51.714-51.714-21.429-51.714 21.429-21.429 51.714zM649.143 182.857q0 26.286 18.857 45.143t45.143 18.857 45.143-18.857 18.857-45.143-18.857-45.143-45.143-18.857-45.143 18.857-18.857 45.143zM667.429 694.857q0 18.857 13.429 32.286t32.286 13.429 32.286-13.429 13.429-32.286-13.429-32.286-32.286-13.429-32.286 13.429-13.429 32.286zM768 438.857q0 22.857 16 38.857t38.857 16 38.857-16 16-38.857-16-38.857-38.857-16-38.857 16-16 38.857z" horiz-adv-x="896" data-tags="spinner" />
<glyph unicode="&#xf11d;" d="M36.571 804.571q0 30.286 21.429 51.714t51.714 21.429 51.714-21.429 21.429-51.714q0-20-10-36.571t-26.571-26.286v-723.429q0-8-5.143-13.143t-13.143-5.143h-36.571q-8 0-13.143 5.143t-5.143 13.143v723.429q-16.571 9.714-26.571 26.286t-10 36.571zM182.857 256v424q0 20 17.714 31.429 20 12 44.857 24.286t65.143 29.714 87.143 28.286 88.571 10.857q64 0 119.429-17.714t119.429-49.143q21.714-10.857 50.857-10.857 69.714 0 177.143 64 12.571 6.857 17.714 9.714 17.714 9.143 35.429-1.143 17.714-11.429 17.714-31.429v-436q0-22.286-20-32.571-5.714-2.857-9.714-5.143-124.571-66.286-210.857-66.286-50.286 0-90.286 20l-16 8q-36.571 18.857-56.571 27.429t-52 16.571-65.143 8q-58.286 0-134.571-25.143t-130.571-58.286q-8.571-5.143-18.857-5.143-9.143 0-18.286 4.571-18.286 10.857-18.286 32zM256 316.571q140 64.571 247.429 64.571 31.429 0 59.143-4.286t56-14.857 44-17.714 47.143-22.571l16-8q25.143-12.571 57.714-12.571 68.571 0 167.429 52.571v352q-96.571-52-174.857-52-46.857 0-82.857 18.286-57.143 28-105.143 43.714t-101.714 15.714q-98.857 0-230.286-72.571v-342.286z" data-tags="flag-o" />
<glyph unicode="&#xf153;" d="M0 366.857v64.571q0 7.429 5.429 12.857t12.857 5.429h37.714q-1.143 32.571 0.571 60h-38.286q-8 0-13.143 5.143t-5.143 13.143v65.143q0 8 5.143 13.143t13.143 5.143h56q38.286 120 139.143 193.143t228.857 73.143q58.286 0 110.857-13.143 6.286-1.714 11.429-8.571 3.429-6.286 1.714-13.714l-24.571-90.857q-1.714-7.429-8-11.143t-13.714-1.429l-2.286 0.571q-2.286 0.571-6.571 1.429l-10 2t-12.857 2-14.857 1.714-16.571 1.429-16.857 0.571q-72 0-129.143-36.571t-85.714-100.571h267.429q9.143 0 14.286-6.857 5.714-6.857 4-14.857l-13.714-65.143q-2.857-14.857-18.286-14.857h-278.857q-1.714-21.143 0-60h262.286q8.571 0 14.286-6.857 5.143-6.857 3.429-15.429l-13.714-64q-1.143-6.286-6.286-10.571t-11.429-4.286h-221.143q27.429-66.857 85.429-106t130.571-39.143q10.286 0 20.571 0.857t19.143 2 16.857 2.571 14 2.857 10.571 2.571l6.857 1.714 2.857 1.143q7.429 2.857 14.857-1.143 6.857-4 8.571-12l20-90.857q1.714-6.857-1.714-12.857t-9.714-8.286l-2.857-0.571q-2.286-1.143-6-2t-9.143-2.571-12.286-3.143-14.571-2.857-17.143-2.857-19.143-2.571-20.857-1.714-22-0.571q-133.714 0-233.714 74.571t-136 200.857h-54.286q-7.429 0-12.857 5.429t-5.429 12.857z" horiz-adv-x="585" data-tags="euro, eur" />
<glyph unicode="&#xf15c;" d="M0-18.286v914.286q0 22.857 16 38.857t38.857 16h457.143v-310.857q0-22.857 16-38.857t38.857-16h310.857v-603.429q0-22.857-16-38.857t-38.857-16h-768q-22.857 0-38.857 16t-16 38.857zM219.429 164.571q0-8 5.143-13.143t13.143-5.143h402.286q8 0 13.143 5.143t5.143 13.143v36.571q0 8-5.143 13.143t-13.143 5.143h-402.286q-8 0-13.143-5.143t-5.143-13.143v-36.571zM219.429 310.857q0-8 5.143-13.143t13.143-5.143h402.286q8 0 13.143 5.143t5.143 13.143v36.571q0 8-5.143 13.143t-13.143 5.143h-402.286q-8 0-13.143-5.143t-5.143-13.143v-36.571zM219.429 457.143q0-8 5.143-13.143t13.143-5.143h402.286q8 0 13.143 5.143t5.143 13.143v36.571q0 8-5.143 13.143t-13.143 5.143h-402.286q-8 0-13.143-5.143t-5.143-13.143v-36.571zM585.143 658.286v269.714q12.571-8 20.571-16l233.143-233.143q8-8 16-20.571h-269.714z" data-tags="file-text" />
<glyph unicode="&#xf167;" d="M15.429 221.714q0 133.714 14.857 200 8 33.714 33.143 56.571t58.857 26.857q104.571 11.429 316.571 11.429t317.143-11.429q33.143-4 58.571-26.857t32.857-56.571q14.857-64 14.857-200 0-133.714-14.857-200-8-33.714-33.143-56.571t-58.286-26.286q-105.143-12-317.143-12t-317.143 12q-33.143 3.429-58.571 26.286t-32.857 56.571q-14.857 64-14.857 200zM78.857 364h60v-325.143h57.143v325.143h61.143v53.714h-178.286v-53.714zM152 950.857h60.571l40.571-150.286 38.857 150.286h58.286l-69.143-228v-154.857h-57.143v154.857q-8 42.286-34.857 121.143-21.143 58.857-37.143 106.857zM264.571 97.714q0-28 4.571-41.714 6.857-21.143 33.143-21.143 27.429 0 58.286 34.857v-30.857h50.857v282.286h-50.857v-216q-17.143-24-32.571-24-10.286 0-12 12-0.571 1.714-0.571 20v208h-50.857v-223.429zM350.857 660.571v100q0 45.714 16 66.857 21.714 29.143 60 29.143 39.429 0 60.571-29.143 16-21.143 16-66.857v-100q0-46.286-16-67.429-21.143-29.143-60.571-29.143-38.286 0-60 29.143-16 21.714-16 67.429zM402.286 650.857q0-40 24.571-40t24.571 40v120q0 39.429-24.571 39.429t-24.571-39.429v-120zM456 38.857h50.857v27.429q25.714-31.429 53.143-31.429 30.857 0 40.571 31.429 5.143 15.429 5.143 57.143v112.571q0 41.714-5.143 56.571-9.714 32-40.571 32-28.571 0-53.143-30.857v124h-50.857v-378.857zM506.857 93.714v172q12.571 12.571 25.714 12.571 22.286 0 22.286-38.286v-120.571q0-38.286-22.286-38.286-13.143 0-25.714 12.571zM545.714 628v225.143h52v-209.714q0-18.857 0.571-20 1.714-12.571 12-12.571 15.429 0 32.571 24.571v217.714h52v-285.143h-52v31.429q-30.286-35.429-58.857-35.429-26.286 0-33.714 21.143-4.571 13.714-4.571 42.857zM645.714 130.286q0-45.143 16.571-66.286 22.286-29.143 61.714-29.143 41.143 0 61.714 30.286 10.286 15.429 12 30.857 1.143 5.143 1.143 33.143v7.429h-52q0-29.143-1.143-34.857-4-20.571-22.857-20.571-26.286 0-26.286 39.429v49.714h102.286v58.857q0 45.143-15.429 66.286-22.286 29.143-60.571 29.143-38.857 0-61.143-29.143-16-21.143-16-66.286v-98.857zM696.571 213.143v26.286q0 38.857 25.714 38.857t25.714-38.857v-26.286h-51.429z" data-tags="youtube" />
<glyph unicode="&#xf179;" d="M796 256.571q-22.286-71.429-70.286-142.857-73.714-112-146.857-112-28 0-80 18.286-49.143 18.286-86.286 18.286-34.857 0-81.143-18.857-46.286-19.429-75.429-19.429-86.857 0-172 148-84 149.143-84 287.429 0 130.286 64.571 213.714 64 82.286 162.286 82.286 41.143 0 101.143-17.143 59.429-17.143 78.857-17.143 25.714 0 81.714 19.429 58.286 19.429 98.857 19.429 68 0 121.714-37.143 29.714-20.571 59.429-57.143-45.143-38.286-65.143-67.429-37.143-53.714-37.143-118.286 0-70.857 39.429-127.429t90.286-72zM581.143 926.857q0-34.857-16.571-77.714-17.143-42.857-53.143-78.857-30.857-30.857-61.714-41.143-21.143-6.286-59.429-9.714 1.714 85.143 44.571 146.857 42.286 61.143 142.857 84.571 0.571-1.714 1.429-6.286t1.429-6.286q0-2.286 0.286-5.714t0.286-5.714z" horiz-adv-x="805" data-tags="apple" />
<glyph unicode="&#xf17b;" d="M281.714 674.857q9.143 0 15.714 6.571t6.571 15.714-6.571 15.714-15.714 6.571-15.429-6.571-6.286-15.714 6.286-15.714 15.429-6.571zM522.857 674.857q9.143 0 15.429 6.571t6.286 15.714-6.286 15.714-15.429 6.571-15.714-6.571-6.571-15.714 6.571-15.714 15.714-6.571zM58.857 569.714q24 0 41.143-17.143t17.143-41.143v-245.714q0-24.571-16.857-41.714t-41.429-17.143-41.714 17.143-17.143 41.714v245.714q0 24 17.143 41.143t41.714 17.143zM664.571 558.857v-380.571q0-26.286-18.286-44.571t-44-18.286h-42.857v-129.714q0-24.571-17.143-41.714t-41.714-17.143-41.714 17.143-17.143 41.714v129.714h-78.857v-129.714q0-24.571-17.143-41.714t-41.714-17.143q-24 0-41.143 17.143t-17.143 41.714l-0.571 129.714h-42.286q-26.286 0-44.571 18.286t-18.286 44.571v380.571h524.571zM532 790.286q61.143-31.429 97.714-87.714t36.571-123.143h-528.571q0 66.857 36.571 123.143t98.286 87.714l-40.571 74.857q-4 7.429 2.857 11.429 7.429 3.429 11.429-3.429l41.143-75.429q54.286 24 114.857 24t114.857-24l41.143 75.429q4 6.857 11.429 3.429 6.857-4 2.857-11.429zM804.571 511.428v-245.714q0-24.571-17.143-41.714t-41.714-17.143q-24 0-41.143 17.143t-17.143 41.714v245.714q0 24.571 17.143 41.429t41.143 16.857q24.571 0 41.714-16.857t17.143-41.429z" horiz-adv-x="805" data-tags="android" />
<glyph unicode="&#xf200;" d="M438.857 442.286l312-312q-60.571-61.714-141.429-96t-170.571-34.286q-119.429 0-220.286 58.857t-159.714 159.714-58.857 220.286 58.857 220.286 159.714 159.714 220.286 58.857v-435.429zM545.714 438.857h441.714q0-89.714-34.286-170.571t-96-141.429zM950.857 512h-438.857v438.857q119.429 0 220.286-58.857t159.714-159.714 58.857-220.286z" data-tags="pie-chart" />
<glyph unicode="&#xf053c;" d="M88 475.428q0 14.857 10.857 25.714l424 424q10.857 10.857 25.714 10.857t25.714-10.857l94.857-94.857q10.857-10.857 10.857-25.714t-10.857-25.714l-303.429-303.429 303.429-303.429q10.857-10.857 10.857-25.714t-10.857-25.714l-94.857-94.857q-10.857-10.857-25.714-10.857t-25.714 10.857l-424 424q-10.857 10.857-10.857 25.714z" horiz-adv-x="731" data-tags="chevron-left" />
<glyph unicode="￿￿" d="M88 475.428q0 14.857 10.857 25.714l424 424q10.857 10.857 25.714 10.857t25.714-10.857l94.857-94.857q10.857-10.857 10.857-25.714t-10.857-25.714l-303.429-303.429 303.429-303.429q10.857-10.857 10.857-25.714t-10.857-25.714l-94.857-94.857q-10.857-10.857-25.714-10.857t-25.714 10.857l-424 424q-10.857 10.857-10.857 25.714z" horiz-adv-x="731" data-tags="chevron-left" />
<glyph unicode="youtube" d="M15.429 221.714q0 133.714 14.857 200 8 33.714 33.143 56.571t58.857 26.857q104.571 11.429 316.571 11.429t317.143-11.429q33.143-4 58.571-26.857t32.857-56.571q14.857-64 14.857-200 0-133.714-14.857-200-8-33.714-33.143-56.571t-58.286-26.286q-105.143-12-317.143-12t-317.143 12q-33.143 3.429-58.571 26.286t-32.857 56.571q-14.857 64-14.857 200zM78.857 364h60v-325.143h57.143v325.143h61.143v53.714h-178.286v-53.714zM152 950.857h60.571l40.571-150.286 38.857 150.286h58.286l-69.143-228v-154.857h-57.143v154.857q-8 42.286-34.857 121.143-21.143 58.857-37.143 106.857zM264.571 97.714q0-28 4.571-41.714 6.857-21.143 33.143-21.143 27.429 0 58.286 34.857v-30.857h50.857v282.286h-50.857v-216q-17.143-24-32.571-24-10.286 0-12 12-0.571 1.714-0.571 20v208h-50.857v-223.429zM350.857 660.571v100q0 45.714 16 66.857 21.714 29.143 60 29.143 39.429 0 60.571-29.143 16-21.143 16-66.857v-100q0-46.286-16-67.429-21.143-29.143-60.571-29.143-38.286 0-60 29.143-16 21.714-16 67.429zM402.286 650.857q0-40 24.571-40t24.571 40v120q0 39.429-24.571 39.429t-24.571-39.429v-120zM456 38.857h50.857v27.429q25.714-31.429 53.143-31.429 30.857 0 40.571 31.429 5.143 15.429 5.143 57.143v112.571q0 41.714-5.143 56.571-9.714 32-40.571 32-28.571 0-53.143-30.857v124h-50.857v-378.857zM506.857 93.714v172q12.571 12.571 25.714 12.571 22.286 0 22.286-38.286v-120.571q0-38.286-22.286-38.286-13.143 0-25.714 12.571zM545.714 628v225.143h52v-209.714q0-18.857 0.571-20 1.714-12.571 12-12.571 15.429 0 32.571 24.571v217.714h52v-285.143h-52v31.429q-30.286-35.429-58.857-35.429-26.286 0-33.714 21.143-4.571 13.714-4.571 42.857zM645.714 130.286q0-45.143 16.571-66.286 22.286-29.143 61.714-29.143 41.143 0 61.714 30.286 10.286 15.429 12 30.857 1.143 5.143 1.143 33.143v7.429h-52q0-29.143-1.143-34.857-4-20.571-22.857-20.571-26.286 0-26.286 39.429v49.714h102.286v58.857q0 45.143-15.429 66.286-22.286 29.143-60.571 29.143-38.857 0-61.143-29.143-16-21.143-16-66.286v-98.857zM696.571 213.143v26.286q0 38.857 25.714 38.857t25.714-38.857v-26.286h-51.429z" data-tags="youtube" />
<glyph unicode="user" d="M0 148q0 30.286 2 59.143t8 62.286 15.143 62 24.571 55.714 35.429 46.286 48.857 30.571 63.714 11.429q5.143 0 24-12.286t42.571-27.429 61.714-27.429 76.286-12.286 76.286 12.286 61.714 27.429 42.571 27.429 24 12.286q34.857 0 63.714-11.429t48.857-30.571 35.429-46.286 24.571-55.714 15.143-62 8-62.286 2-59.143q0-68.571-41.714-108.286t-110.857-39.714h-499.429q-69.143 0-110.857 39.714t-41.714 108.286zM182.857 658.286q0 90.857 64.286 155.143t155.143 64.286 155.143-64.286 64.286-155.143-64.286-155.143-155.143-64.286-155.143 64.286-64.286 155.143z" horiz-adv-x="805" data-tags="user" />
<glyph unicode="upload" d="M0 54.857v182.857q0 22.857 16 38.857t38.857 16h244q12-32 40.286-52.571t63.143-20.571h146.286q34.857 0 63.143 20.571t40.286 52.571h244q22.857 0 38.857-16t16-38.857v-182.857q0-22.857-16-38.857t-38.857-16h-841.143q-22.857 0-38.857 16t-16 38.857zM185.714 608q-9.714 22.286 8 39.429l256 256q10.286 10.857 25.714 10.857t25.714-10.857l256-256q17.714-17.143 8-39.429-9.714-22.857-33.714-22.857h-146.286v-256q0-14.857-10.857-25.714t-25.714-10.857h-146.286q-14.857 0-25.714 10.857t-10.857 25.714v256h-146.286q-24 0-33.714 22.857zM658.286 109.714q0-14.857 10.857-25.714t25.714-10.857 25.714 10.857 10.857 25.714-10.857 25.714-25.714 10.857-25.714-10.857-10.857-25.714zM804.571 109.714q0-14.857 10.857-25.714t25.714-10.857 25.714 10.857 10.857 25.714-10.857 25.714-25.714 10.857-25.714-10.857-10.857-25.714z" horiz-adv-x="951" data-tags="upload" />
<glyph unicode="twitter" d="M0 164.571v548.571q0 68 48.286 116.286t116.286 48.286h548.571q68 0 116.286-48.286t48.286-116.286v-548.571q0-68-48.286-116.286t-116.286-48.286h-548.571q-68 0-116.286 48.286t-48.286 116.286zM146.286 236.571q84.571-53.714 184-53.714 64 0 120 20.286t96 54.286 68.857 78.286 42.857 92.571 14 96.286q0 10.286-0.571 15.429 36 25.714 60 62.286-32-14.286-69.143-19.429 38.857 22.857 53.143 66.857-37.143-21.714-76.571-29.143-34.857 37.714-87.429 37.714-49.714 0-84.857-35.143t-35.143-84.857q0-16.571 2.857-27.429-73.714 4-138.286 37.143t-109.714 88.571q-16.571-28.571-16.571-60.571 0-65.143 52-100-26.857 0.571-57.143 14.857v-1.143q0-42.857 28.571-76.286t70.286-41.429q-16.571-4.571-29.143-4.571-7.429 0-22.286 2.286 12-36 42.571-59.429t69.429-24q-66.286-51.429-149.143-51.429-14.857 0-28.571 1.714z" data-tags="twitter-square" />
<glyph unicode="trash" d="M0 676.571v36.571q0 8 5.143 13.143t13.143 5.143h176.571l40 95.429q8.571 21.143 30.857 36t45.143 14.857h182.857q22.857 0 45.143-14.857t30.857-36l40-95.429h176.571q8 0 13.143-5.143t5.143-13.143v-36.571q0-8-5.143-13.143t-13.143-5.143h-54.857v-541.714q0-47.429-26.857-82t-64.571-34.571h-475.429q-37.714 0-64.571 33.429t-26.857 80.857v544h-54.857q-8 0-13.143 5.143t-5.143 13.143zM146.286 116.571q0-12.571 4-23.143t8.286-15.429 6-4.857h475.429q1.714 0 6 4.857t8.286 15.429 4 23.143v541.714h-512v-541.714zM219.429 201.143v329.143q0 8 5.143 13.143t13.143 5.143h36.571q8 0 13.143-5.143t5.143-13.143v-329.143q0-8-5.143-13.143t-13.143-5.143h-36.571q-8 0-13.143 5.143t-5.143 13.143zM274.286 731.428h256l-27.429 66.857q-4 5.143-9.714 6.286h-181.143q-5.714-1.143-9.714-6.286zM365.714 201.143v329.143q0 8 5.143 13.143t13.143 5.143h36.571q8 0 13.143-5.143t5.143-13.143v-329.143q0-8-5.143-13.143t-13.143-5.143h-36.571q-8 0-13.143 5.143t-5.143 13.143zM512 201.143v329.143q0 8 5.143 13.143t13.143 5.143h36.571q8 0 13.143-5.143t5.143-13.143v-329.143q0-8-5.143-13.143t-13.143-5.143h-36.571q-8 0-13.143 5.143t-5.143 13.143z" horiz-adv-x="805" data-tags="trash-o" />
<glyph unicode="tipos" d="M537.6 640c89.6 0 160 70.4 166.4 160 0 89.6-64 160-153.6 160s-166.4-70.4-166.4-160c0-89.6 64-160 153.6-160zM448 576h-224c-51.2 0-96-38.4-96-96s44.8-96 96-96h147.2l-51.2-345.6c0-57.6 38.4-102.4 89.6-102.4s89.6 38.4 102.4 89.6l57.6 345.6c38.4 211.2-121.6 204.8-121.6 204.8zM800 384c51.2 0 96 38.4 96 96s-44.8 96-96 96h-313.6c0 0 185.6-6.4 153.6-192h128z" data-tags="ZelenaPosta_Icon_Tipos" />
<glyph unicode="spinner" d="M0 438.857q0 37.714 26.857 64.571t64.571 26.857 64.571-26.857 26.857-64.571-26.857-64.571-64.571-26.857-64.571 26.857-26.857 64.571zM100.571 694.857q0 41.714 29.429 71.143t71.143 29.429 71.143-29.429 29.429-71.143-29.429-71.143-71.143-29.429-71.143 29.429-29.429 71.143zM118.857 182.857q0 34.286 24 58.286t58.286 24q33.714 0 58-24t24.286-58.286-24.286-58.286-58-24q-34.286 0-58.286 24t-24 58.286zM347.429 804.571q0 45.714 32 77.714t77.714 32 77.714-32 32-77.714-32-77.714-77.714-32-77.714 32-32 77.714zM384 73.143q0 30.286 21.429 51.714t51.714 21.429 51.714-21.429 21.429-51.714-21.429-51.714-51.714-21.429-51.714 21.429-21.429 51.714zM649.143 182.857q0 26.286 18.857 45.143t45.143 18.857 45.143-18.857 18.857-45.143-18.857-45.143-45.143-18.857-45.143 18.857-18.857 45.143zM667.429 694.857q0 18.857 13.429 32.286t32.286 13.429 32.286-13.429 13.429-32.286-13.429-32.286-32.286-13.429-32.286 13.429-13.429 32.286zM768 438.857q0 22.857 16 38.857t38.857 16 38.857-16 16-38.857-16-38.857-38.857-16-38.857 16-16 38.857z" horiz-adv-x="896" data-tags="spinner" />
<glyph unicode="settings" d="M0 376.571v126.857q0 6.857 4.571 13.143t10.857 7.429l106.286 16q8 26.286 22.286 52.571-22.857 32.571-61.143 78.857-5.714 6.857-5.714 13.714 0 5.714 5.143 13.143 14.857 20.571 56.286 61.429t54 40.857q7.429 0 14.857-5.714l78.857-61.143q25.143 13.143 52 21.714 9.143 77.714 16.571 106.286 4 16 20.571 16h126.857q8 0 14-4.857t6.571-12.286l16-105.143q28-9.143 51.429-21.143l81.143 61.143q5.143 5.143 13.714 5.143 7.429 0 14.286-5.714 73.714-68 94.286-97.143 4-4.571 4-12.571 0-6.857-4.571-13.143-8.571-12-29.143-38t-30.857-40.286q14.857-28.571 23.429-56l104.571-16q7.429-1.143 12-7.143t4.571-13.429v-126.857q0-6.857-4.571-13.143t-11.429-7.429l-105.714-16q-10.857-30.857-22.286-52 20-28.571 61.143-78.857 5.714-6.857 5.714-14.286t-5.143-13.143q-15.429-21.143-56.571-61.714t-53.714-40.571q-6.857 0-14.857 5.143l-78.857 61.714q-25.143-13.143-52-21.714-9.143-77.714-16.571-106.286-4-16-20.571-16h-126.857q-8 0-14 4.857t-6.571 12.286l-16 105.143q-28 9.143-51.429 21.143l-80.571-61.143q-5.714-5.143-14.286-5.143-8 0-14.286 6.286-72 65.143-94.286 96-4 5.714-4 13.143 0 6.857 4.571 13.143 8.571 12 29.143 38t30.857 40.286q-15.429 28.571-23.429 56.571l-104.571 15.429q-7.429 1.143-12 7.143t-4.571 13.429zM292.571 438.857q0-60.571 42.857-103.429t103.429-42.857 103.429 42.857 42.857 103.429-42.857 103.429-103.429 42.857-103.429-42.857-42.857-103.429z" data-tags="gear, cog" />
<glyph unicode="search" d="M0 475.428q0 81.714 31.714 156.286t85.714 128.571 128.571 85.714 156.286 31.714 156.286-31.714 128.571-85.714 85.714-128.571 31.714-156.286q0-125.714-70.857-228l196-196q21.143-21.143 21.143-51.429 0-29.714-21.714-51.429t-51.429-21.714q-30.857 0-51.429 21.714l-196 195.429q-102.286-70.857-228-70.857-81.714 0-156.286 31.714t-128.571 85.714-85.714 128.571-31.714 156.286zM146.286 475.428q0-105.714 75.143-180.857t180.857-75.143 180.857 75.143 75.143 180.857-75.143 180.857-180.857 75.143-180.857-75.143-75.143-180.857z" horiz-adv-x="951" data-tags="search" />
<glyph unicode="print" d="M0 164.571v237.714q0 45.143 32.286 77.429t77.429 32.286h36.571v310.857q0 22.857 16 38.857t38.857 16h384q22.857 0 50.286-11.429t43.429-27.429l86.857-86.857q16-16 27.429-43.429t11.429-50.286v-146.286h36.571q45.143 0 77.429-32.286t32.286-77.429v-237.714q0-7.429-5.429-12.857t-12.857-5.429h-128v-91.429q0-22.857-16-38.857t-38.857-16h-548.571q-22.857 0-38.857 16t-16 38.857v91.429h-128q-7.429 0-12.857 5.429t-5.429 12.857zM219.429 73.143h512v146.286h-512v-146.286zM219.429 438.857h512v219.429h-91.429q-22.857 0-38.857 16t-16 38.857v91.429h-365.714v-365.714zM804.571 402.286q0-14.857 10.857-25.714t25.714-10.857 25.714 10.857 10.857 25.714-10.857 25.714-25.714 10.857-25.714-10.857-10.857-25.714z" horiz-adv-x="951" data-tags="print" />
<glyph unicode="piechart" d="M438.857 442.286l312-312q-60.571-61.714-141.429-96t-170.571-34.286q-119.429 0-220.286 58.857t-159.714 159.714-58.857 220.286 58.857 220.286 159.714 159.714 220.286 58.857v-435.429zM545.714 438.857h441.714q0-89.714-34.286-170.571t-96-141.429zM950.857 512h-438.857v438.857q119.429 0 220.286-58.857t159.714-159.714 58.857-220.286z" data-tags="pie-chart" />
<glyph unicode="phone" d="M0 146.286v585.143q0 29.714 21.714 51.429t51.429 21.714h292.571q29.714 0 51.429-21.714t21.714-51.429v-585.143q0-29.714-21.714-51.429t-51.429-21.714h-292.571q-29.714 0-51.429 21.714t-21.714 51.429zM54.857 237.714q0-7.429 5.429-12.857t12.857-5.429h292.571q7.429 0 12.857 5.429t5.429 12.857v402.286q0 7.429-5.429 12.857t-12.857 5.429h-292.571q-7.429 0-12.857-5.429t-5.429-12.857v-402.286zM164.571 722.286q0-9.143 9.143-9.143h91.429q9.143 0 9.143 9.143t-9.143 9.143h-91.429q-9.143 0-9.143-9.143zM173.714 146.286q0-18.857 13.429-32.286t32.286-13.429 32.286 13.429 13.429 32.286-13.429 32.286-32.286 13.429-32.286-13.429-13.429-32.286z" horiz-adv-x="439" data-tags="mobile-phone, mobile" />
<glyph unicode="notefill" d="M0-18.286v914.286q0 22.857 16 38.857t38.857 16h457.143v-310.857q0-22.857 16-38.857t38.857-16h310.857v-603.429q0-22.857-16-38.857t-38.857-16h-768q-22.857 0-38.857 16t-16 38.857zM219.429 164.571q0-8 5.143-13.143t13.143-5.143h402.286q8 0 13.143 5.143t5.143 13.143v36.571q0 8-5.143 13.143t-13.143 5.143h-402.286q-8 0-13.143-5.143t-5.143-13.143v-36.571zM219.429 310.857q0-8 5.143-13.143t13.143-5.143h402.286q8 0 13.143 5.143t5.143 13.143v36.571q0 8-5.143 13.143t-13.143 5.143h-402.286q-8 0-13.143-5.143t-5.143-13.143v-36.571zM219.429 457.143q0-8 5.143-13.143t13.143-5.143h402.286q8 0 13.143 5.143t5.143 13.143v36.571q0 8-5.143 13.143t-13.143 5.143h-402.286q-8 0-13.143-5.143t-5.143-13.143v-36.571zM585.143 658.286v269.714q12.571-8 20.571-16l233.143-233.143q8-8 16-20.571h-269.714z" data-tags="file-text" />
<glyph unicode="note" d="M0-18.286v914.286q0 22.857 16 38.857t38.857 16h512q22.857 0 50.286-11.429t43.429-27.429l178.286-178.286q16-16 27.429-43.429t11.429-50.286v-658.286q0-22.857-16-38.857t-38.857-16h-768q-22.857 0-38.857 16t-16 38.857zM73.143 0h731.429v585.143h-237.714q-22.857 0-38.857 16t-16 38.857v237.714h-438.857v-877.714zM219.429 164.571v36.571q0 8 5.143 13.143t13.143 5.143h402.286q8 0 13.143-5.143t5.143-13.143v-36.571q0-8-5.143-13.143t-13.143-5.143h-402.286q-8 0-13.143 5.143t-5.143 13.143zM219.429 310.857v36.571q0 8 5.143 13.143t13.143 5.143h402.286q8 0 13.143-5.143t5.143-13.143v-36.571q0-8-5.143-13.143t-13.143-5.143h-402.286q-8 0-13.143 5.143t-5.143 13.143zM219.429 457.143v36.571q0 8 5.143 13.143t13.143 5.143h402.286q8 0 13.143-5.143t5.143-13.143v-36.571q0-8-5.143-13.143t-13.143-5.143h-402.286q-8 0-13.143 5.143t-5.143 13.143zM585.143 658.286h214.857q-5.714 16.571-12.571 23.429l-178.857 178.857q-6.857 6.857-23.429 12.571v-214.857z" data-tags="file-text-o" />
<glyph unicode="navicon" d="M0 109.714v73.143q0 14.857 10.857 25.714t25.714 10.857h804.571q14.857 0 25.714-10.857t10.857-25.714v-73.143q0-14.857-10.857-25.714t-25.714-10.857h-804.571q-14.857 0-25.714 10.857t-10.857 25.714zM0 402.286v73.143q0 14.857 10.857 25.714t25.714 10.857h804.571q14.857 0 25.714-10.857t10.857-25.714v-73.143q0-14.857-10.857-25.714t-25.714-10.857h-804.571q-14.857 0-25.714 10.857t-10.857 25.714zM0 694.857v73.143q0 14.857 10.857 25.714t25.714 10.857h804.571q14.857 0 25.714-10.857t10.857-25.714v-73.143q0-14.857-10.857-25.714t-25.714-10.857h-804.571q-14.857 0-25.714 10.857t-10.857 25.714z" data-tags="navicon, reorder, bars" />
<glyph unicode="message" d="M0 91.428v621.714q0 37.714 26.857 64.571t64.571 26.857h841.143q37.714 0 64.571-26.857t26.857-64.571v-621.714q0-37.714-26.857-64.571t-64.571-26.857h-841.143q-37.714 0-64.571 26.857t-26.857 64.571zM73.143 91.428q0-7.429 5.429-12.857t12.857-5.429h841.143q7.429 0 12.857 5.429t5.429 12.857v438.857q-18.286-20.571-39.429-37.714-153.143-117.714-243.429-193.143-29.143-24.571-47.429-38.286t-49.429-27.714-58.571-14h-1.143q-27.429 0-58.571 14t-49.429 27.714-47.429 38.286q-90.286 75.429-243.429 193.143-21.143 17.143-39.429 37.714v-438.857zM73.143 713.143q0-96 84-162.286 110.286-86.857 229.143-181.143 3.429-2.857 20-16.857t26.286-21.429 25.429-18 28.857-15.714 24.571-5.143h1.143q11.429 0 24.571 5.143t28.857 15.714 25.429 18 26.286 21.429 20 16.857q118.857 94.286 229.143 181.143 30.857 24.571 57.429 66t26.571 75.143v14t-0.286 7.429-1.714 7.143-3.143 5.143-5.143 4.286-8 1.429h-841.143q-7.429 0-12.857-5.429t-5.429-12.857z" data-tags="envelope-o" />
<glyph unicode="linkedin" d="M0 164.571v548.571q0 68 48.286 116.286t116.286 48.286h548.571q68 0 116.286-48.286t48.286-116.286v-548.571q0-68-48.286-116.286t-116.286-48.286h-548.571q-68 0-116.286 48.286t-48.286 116.286zM127.429 661.714q0-29.143 20.286-48.857t52.857-19.714h0.571q33.714 0 54.286 19.714t20.571 48.857q-0.571 29.714-20.571 49.143t-53.143 19.429-54-19.429-20.857-49.143zM135.429 142.857h132v396.571h-132v-396.571zM340 142.857h132v221.714q0 21.714 4 32 8.571 20 25.714 34t42.286 14q66.286 0 66.286-89.714v-212h132v227.429q0 88-41.714 133.143t-110.286 45.143q-77.714 0-119.429-66.857h1.143v57.714h-132q1.714-37.714 0-396.571z" data-tags="linkedin-square" />
<glyph unicode="link" d="M9.143 694.857q0 68.571 48.571 116l84 83.429q47.429 47.429 116 47.429 69.143 0 116.571-48.571l117.714-118.286q47.429-47.429 47.429-116 0-70.286-50.286-119.429l50.286-50.286q49.143 50.286 118.857 50.286 68.571 0 116.571-48l118.857-118.857q48-48 48-116.571t-48.571-116l-84-83.429q-47.429-47.429-116-47.429-69.143 0-116.571 48.571l-117.714 118.286q-47.429 47.429-47.429 116 0 70.286 50.286 119.429l-50.286 50.286q-49.143-50.286-118.857-50.286-68.571 0-116.571 48l-118.857 118.857q-48 48-48 116.571zM118.857 694.857q0-22.857 16-38.857l118.857-118.857q15.429-15.429 38.857-15.429 24 0 41.143 17.714-1.714 1.714-10.857 10.571t-12.286 12.286-8.571 10.857-7.429 14.571-2 15.714q0 22.857 16 38.857t38.857 16q8.571 0 15.714-2t14.571-7.429 10.857-8.571 12.286-12.286 10.571-10.857q18.857 17.714 18.857 41.714 0 22.857-16 38.857l-117.714 118.286q-16 16-38.857 16-22.286 0-38.857-15.429l-84-83.429q-16-16-16-38.286zM520.571 292q0-22.857 16-38.857l117.714-118.286q15.429-15.429 38.857-15.429 22.857 0 38.857 14.857l84 83.429q16 16 16 38.286 0 22.857-16 38.857l-118.857 118.857q-16 16-38.857 16-24 0-41.143-18.286 1.714-1.714 10.857-10.571t12.286-12.286 8.571-10.857 7.429-14.571 2-15.714q0-22.857-16-38.857t-38.857-16q-8.571 0-15.714 2t-14.571 7.429-10.857 8.571-12.286 12.286-10.571 10.857q-18.857-17.714-18.857-41.714z" horiz-adv-x="951" data-tags="chain, link" />
<glyph unicode="lightbulb" d="M0 621.714q0 56.571 25.429 105.429t66.857 81.143 93.714 50.857 106.571 18.571 106.571-18.571 93.714-50.857 66.857-81.143 25.429-105.429q0-88.571-58.857-153.143-25.714-28-42.571-49.714t-34-54.571-19.429-61.429q26.857-16 26.857-46.857 0-21.143-14.286-36.571 14.286-15.429 14.286-36.571 0-29.714-25.714-46.286 7.429-13.143 7.429-26.857 0-26.286-18-40.571t-44.286-14.286q-11.429-25.143-34.286-40t-49.714-14.857-49.714 14.857-34.286 40q-26.286 0-44.286 14.286t-18 40.571q0 13.714 7.429 26.857-25.714 16.571-25.714 46.286 0 21.143 14.286 36.571-14.286 15.429-14.286 36.571 0 30.857 26.857 46.857-2.286 28.571-19.429 61.429t-34 54.571-42.571 49.714q-58.857 64.571-58.857 153.143zM73.143 621.714q0-57.714 38.857-102.857 5.714-6.286 17.429-18.857t17.429-18.857q73.143-87.429 80.571-170.286h130.286q7.429 82.857 80.571 170.286 5.714 6.286 17.429 18.857t17.429 18.857q38.857 45.143 38.857 102.857 0 41.143-19.714 76.571t-51.429 58-70.286 35.429-78 12.857-78-12.857-70.286-35.429-51.429-58-19.714-76.571zM274.286 694.857q0 7.429 5.429 12.857t12.857 5.429q28.571 0 56.857-9.143t49.714-30.857 21.429-51.429q0-7.429-5.429-12.857t-12.857-5.429-12.857 5.429-5.429 12.857q0 26.286-30.857 40.571t-60.571 14.286q-7.429 0-12.857 5.429t-5.429 12.857z" horiz-adv-x="585" data-tags="lightbulb-o" />
<glyph unicode="lasso" d="M832 192l96 96-441.6 185.6 185.6-441.6 96 96 160-160 64 64zM512 832h128v-128h-128v128zM256 128v128h-128c25.6-51.2 70.4-102.4 128-128zM704 832v-128h128c-25.6 51.2-70.4 102.4-128 128zM128 448h128v-128h-128v128zM704 640h128v-128h-128v128zM320 832h128v-128h-128v128zM320 128h128v128h-128zM128 640h128v-128h-128v128zM128 704h128v128c-51.2-25.6-102.4-70.4-128-128z" data-tags="ZelenaPosta_Icon_Select" />
<glyph unicode="laptop" d="M0 128v54.857h1097.143v-54.857q0-22.857-26.857-38.857t-64.571-16h-914.286q-37.714 0-64.571 16t-26.857 38.857zM146.286 310.857v402.286q0 37.714 26.857 64.571t64.571 26.857h621.714q37.714 0 64.571-26.857t26.857-64.571v-402.286q0-37.714-26.857-64.571t-64.571-26.857h-621.714q-37.714 0-64.571 26.857t-26.857 64.571zM219.429 310.857q0-7.429 5.429-12.857t12.857-5.429h621.714q7.429 0 12.857 5.429t5.429 12.857v402.286q0 7.429-5.429 12.857t-12.857 5.429h-621.714q-7.429 0-12.857-5.429t-5.429-12.857v-402.286zM493.714 137.143q0-9.143 9.143-9.143h91.429q9.143 0 9.143 9.143t-9.143 9.143h-91.429q-9.143 0-9.143-9.143z" horiz-adv-x="1097" data-tags="laptop" />
<glyph unicode="internalfile" d="M832-64h-652.8c-12.8 0-25.6 6.4-38.4 12.8-6.4 12.8-12.8 25.6-12.8 44.8v908.8c0 12.8 6.4 25.6 12.8 38.4 12.8 12.8 25.6 19.2 38.4 19.2h428.8c12.8 0 32-6.4 44.8-12.8 19.2-6.4 32-19.2 38.4-25.6l160-172.8c12.8-12.8 19.2-25.6 25.6-44.8 12.8-19.2 19.2-51.2 19.2-64v-640c0-12.8-6.4-38.4-12.8-44.8-12.8-12.8-32-19.2-51.2-19.2zM640 896v-192h192l-192 192zM832 640h-192l-64 64v192h-384v-896h646.4l-6.4 640z" data-tags="ZelenaPosta_Icon_PrijateDorucenePostou2" />
<glyph unicode="info" d="M0 438.857q0 119.429 58.857 220.286t159.714 159.714 220.286 58.857 220.286-58.857 159.714-159.714 58.857-220.286-58.857-220.286-159.714-159.714-220.286-58.857-220.286 58.857-159.714 159.714-58.857 220.286zM292.571 164.571q0-8 5.143-13.143t13.143-5.143h256q8 0 13.143 5.143t5.143 13.143v91.429q0 8-5.143 13.143t-13.143 5.143h-54.857v292.571q0 8-5.143 13.143t-13.143 5.143h-182.857q-8 0-13.143-5.143t-5.143-13.143v-91.429q0-8 5.143-13.143t13.143-5.143h54.857v-182.857h-54.857q-8 0-13.143-5.143t-5.143-13.143v-91.429zM365.714 676.571q0-8 5.143-13.143t13.143-5.143h109.714q8 0 13.143 5.143t5.143 13.143v91.429q0 8-5.143 13.143t-13.143 5.143h-109.714q-8 0-13.143-5.143t-5.143-13.143v-91.429z" data-tags="info-circle" />
<glyph unicode="google" d="M0 164.571v548.571q0 68 48.286 116.286t116.286 48.286h548.571q68 0 116.286-48.286t48.286-116.286v-548.571q0-68-48.286-116.286t-116.286-48.286h-548.571q-68 0-116.286 48.286t-48.286 116.286zM157.714 249.714q0-24.571 10.571-44.286t27.714-32.286 39.429-21.143 44.286-12 43.714-3.429q34.286 0 68.857 8.857t64.857 26.286 49.143 47.143 18.857 66.857q0 28-11.429 51.143t-28 38-33.143 27.143-28 25.143-11.429 25.429 8.857 24.286 21.429 22.571 25.143 24 21.429 34 8.857 47.143q0 34.286-12.857 56.857t-41.429 51.714h47.429l50.286 36.571h-151.429q-48.571 0-92-18.286t-72.857-56-29.429-87.429q0-53.143 36.857-88.286t90.571-35.143q12.571 0 24.571 1.714-7.429-16.571-7.429-30.857 0-25.143 22.857-53.714-100-6.857-146.857-36-26.857-16.571-43.143-41.714t-16.286-54.286zM225.714 266.286q0 26.286 14.286 45.714t37.429 29.429 46.857 14.286 48.286 4.286q11.429 0 17.714-1.143 1.143-0.571 13.143-9.429t14.857-10.857 13.143-10.286 14-12.571 10.857-12.857 9.714-14.857 5.143-15.143 2.571-18q0-43.429-33.429-64.286t-79.714-20.857q-23.429 0-46 5.429t-43.143 16.286-33.143 30.286-12.571 44.571zM264 626.857q0 34.857 18.286 59.429t52.571 24.571q30.286 0 53.429-25.714t33.143-57.714 10-61.143q0-34.286-18.857-56.857t-52.571-22.571q-30.286 0-53.143 24.286t-32.857 55.143-10 60.571zM548.571 457.143h73.143v-91.429h36.571v91.429h73.143v36.571h-73.143v73.143h-36.571v-73.143h-73.143v-36.571z" data-tags="google-plus-square" />
<glyph unicode="flagfill" d="M36.571 804.571q0 30.286 21.429 51.714t51.714 21.429 51.714-21.429 21.429-51.714q0-41.143-36.571-62.857v-723.429q0-7.429-5.429-12.857t-12.857-5.429h-36.571q-7.429 0-12.857 5.429t-5.429 12.857v723.429q-36.571 21.714-36.571 62.857zM182.857 256v424q0 18.286 17.714 31.429 12 8 45.143 24.571 134.857 68.571 240.571 68.571 61.143 0 114.286-16.571t125.143-50.286q21.714-10.857 50.286-10.857 30.857 0 67.143 12t62.857 26.857 50.286 26.857 31.143 12q14.857 0 25.714-10.857t10.857-25.714v-436q0-14.286-7.143-22t-22.571-15.714q-122.857-66.286-210.857-66.286-34.857 0-70.571 12.571t-62 27.429-66 27.429-81.429 12.571q-109.714 0-265.143-83.429-9.714-5.143-18.857-5.143-14.857 0-25.714 10.857t-10.857 25.714z" data-tags="flag" />
<glyph unicode="flag" d="M36.571 804.571q0 30.286 21.429 51.714t51.714 21.429 51.714-21.429 21.429-51.714q0-20-10-36.571t-26.571-26.286v-723.429q0-8-5.143-13.143t-13.143-5.143h-36.571q-8 0-13.143 5.143t-5.143 13.143v723.429q-16.571 9.714-26.571 26.286t-10 36.571zM182.857 256v424q0 20 17.714 31.429 20 12 44.857 24.286t65.143 29.714 87.143 28.286 88.571 10.857q64 0 119.429-17.714t119.429-49.143q21.714-10.857 50.857-10.857 69.714 0 177.143 64 12.571 6.857 17.714 9.714 17.714 9.143 35.429-1.143 17.714-11.429 17.714-31.429v-436q0-22.286-20-32.571-5.714-2.857-9.714-5.143-124.571-66.286-210.857-66.286-50.286 0-90.286 20l-16 8q-36.571 18.857-56.571 27.429t-52 16.571-65.143 8q-58.286 0-134.571-25.143t-130.571-58.286q-8.571-5.143-18.857-5.143-9.143 0-18.286 4.571-18.286 10.857-18.286 32zM256 316.571q140 64.571 247.429 64.571 31.429 0 59.143-4.286t56-14.857 44-17.714 47.143-22.571l16-8q25.143-12.571 57.714-12.571 68.571 0 167.429 52.571v352q-96.571-52-174.857-52-46.857 0-82.857 18.286-57.143 28-105.143 43.714t-101.714 15.714q-98.857 0-230.286-72.571v-342.286z" data-tags="flag-o" />
<glyph unicode="facebook" d="M0 164.571v548.571q0 68 48.286 116.286t116.286 48.286h548.571q68 0 116.286-48.286t48.286-116.286v-548.571q0-68-48.286-116.286t-116.286-48.286h-109.714v347.429h116l17.143 128h-133.143v81.714q0 30.857 16 47.429t54.857 16.571l75.429 0.571v118.286q-54.857 5.143-102.857 5.143-77.714 0-124.571-46t-46.857-128.857v-94.857h-128v-128h128v-347.429h-310.857q-68 0-116.286 48.286t-48.286 116.286z" data-tags="facebook-square" />
<glyph unicode="eye" d="M512 768c-223.318 0-416.882-130.042-512-320 95.118-189.958 288.682-320 512-320 223.314 0 416.878 130.042 512 320-95.116 189.958-288.686 320-512 320zM764.45 598.296c60.162-38.374 111.142-89.774 149.434-150.296-38.292-60.522-89.274-111.922-149.436-150.298-75.594-48.216-162.89-73.702-252.448-73.702-89.56 0-176.856 25.486-252.45 73.704-60.16 38.372-111.14 89.772-149.434 150.296 38.292 60.524 89.274 111.924 149.434 150.296 3.918 2.5 7.876 4.922 11.858 7.3-9.958-27.328-15.408-56.822-15.408-87.596 0-141.384 114.616-256 256-256s256 114.616 256 256c0 30.774-5.45 60.268-15.408 87.598 3.98-2.378 7.938-4.802 11.858-7.302zM512 550c0-53.020-42.98-96-96-96s-96 42.98-96 96 42.98 96 96 96 96-42.98 96-96z" data-tags="eye, views, vision, visit" />
<glyph unicode="externalfile" d="M832-64h-652.8c-12.8 0-25.6 6.4-38.4 12.8-6.4 12.8-12.8 25.6-12.8 44.8v908.8c0 12.8 6.4 25.6 12.8 38.4 12.8 12.8 25.6 19.2 38.4 19.2h428.8c12.8 0 32-6.4 44.8-12.8 19.2-6.4 32-19.2 38.4-25.6l160-172.8c12.8-12.8 19.2-25.6 25.6-44.8 12.8-19.2 19.2-51.2 19.2-64v-640c0-12.8-6.4-38.4-12.8-44.8-12.8-12.8-32-19.2-51.2-19.2zM640 896v-192h192l-192 192zM832 640h-192l-64 64v192h-384v-896h646.4l-6.4 640zM345.6 352h102.4v198.4c0 6.4 0 12.8 6.4 19.2s6.4 6.4 12.8 6.4h83.2c6.4 0 12.8 0 19.2-6.4s6.4-12.8 6.4-19.2v-198.4h96c6.4 0 25.6 6.4 25.6 0 6.4-12.8 0-19.2-6.4-32l-166.4-179.2c0-6.4-6.4-12.8-12.8-12.8s-12.8 0-19.2 6.4l-166.4 172.8c-6.4 6.4-6.4 19.2-6.4 32 6.4 6.4 12.8 12.8 25.6 12.8z" data-tags="ZelenaPosta_Icon_PrijateUploadnute" />
<glyph unicode="euro" d="M0 366.857v64.571q0 7.429 5.429 12.857t12.857 5.429h37.714q-1.143 32.571 0.571 60h-38.286q-8 0-13.143 5.143t-5.143 13.143v65.143q0 8 5.143 13.143t13.143 5.143h56q38.286 120 139.143 193.143t228.857 73.143q58.286 0 110.857-13.143 6.286-1.714 11.429-8.571 3.429-6.286 1.714-13.714l-24.571-90.857q-1.714-7.429-8-11.143t-13.714-1.429l-2.286 0.571q-2.286 0.571-6.571 1.429l-10 2t-12.857 2-14.857 1.714-16.571 1.429-16.857 0.571q-72 0-129.143-36.571t-85.714-100.571h267.429q9.143 0 14.286-6.857 5.714-6.857 4-14.857l-13.714-65.143q-2.857-14.857-18.286-14.857h-278.857q-1.714-21.143 0-60h262.286q8.571 0 14.286-6.857 5.143-6.857 3.429-15.429l-13.714-64q-1.143-6.286-6.286-10.571t-11.429-4.286h-221.143q27.429-66.857 85.429-106t130.571-39.143q10.286 0 20.571 0.857t19.143 2 16.857 2.571 14 2.857 10.571 2.571l6.857 1.714 2.857 1.143q7.429 2.857 14.857-1.143 6.857-4 8.571-12l20-90.857q1.714-6.857-1.714-12.857t-9.714-8.286l-2.857-0.571q-2.286-1.143-6-2t-9.143-2.571-12.286-3.143-14.571-2.857-17.143-2.857-19.143-2.571-20.857-1.714-22-0.571q-133.714 0-233.714 74.571t-136 200.857h-54.286q-7.429 0-12.857 5.429t-5.429 12.857z" horiz-adv-x="585" data-tags="euro, eur" />
<glyph unicode="edit" d="M0 0v237.714l475.429 475.429 237.714-237.714-475.429-475.429h-237.714zM73.143 146.286h73.143v-73.143h61.143l52 52-134.286 134.286-52-52v-61.143zM170.286 292.571q0-12.571 12.571-12.571 5.714 0 9.714 4l309.714 309.714q4 4 4 9.714 0 12.571-12.571 12.571-5.714 0-9.714-4l-309.714-309.714q-4-4-4-9.714zM512 749.714l94.857 94.286q20.571 21.714 51.429 21.714 30.286 0 52-21.714l134.286-133.714q21.143-22.286 21.143-52 0-30.286-21.143-51.429l-94.857-94.857z" data-tags="pencil" />
<glyph unicode="download" d="M0 128v182.857q0 22.857 16 38.857t38.857 16h265.714l77.143-77.714q33.143-32 77.714-32t77.714 32l77.714 77.714h265.143q22.857 0 38.857-16t16-38.857v-182.857q0-22.857-16-38.857t-38.857-16h-841.143q-22.857 0-38.857 16t-16 38.857zM185.714 636q9.714 22.286 33.714 22.286h146.286v256q0 14.857 10.857 25.714t25.714 10.857h146.286q14.857 0 25.714-10.857t10.857-25.714v-256h146.286q24 0 33.714-22.286 9.714-23.429-8-40l-256-256q-10.286-10.857-25.714-10.857t-25.714 10.857l-256 256q-17.714 16.571-8 40zM658.286 182.857q0-14.857 10.857-25.714t25.714-10.857 25.714 10.857 10.857 25.714-10.857 25.714-25.714 10.857-25.714-10.857-10.857-25.714zM804.571 182.857q0-14.857 10.857-25.714t25.714-10.857 25.714 10.857 10.857 25.714-10.857 25.714-25.714 10.857-25.714-10.857-10.857-25.714z" horiz-adv-x="951" data-tags="download" />
<glyph unicode="doubleup" d="M44 201.143q0 7.429 5.714 13.143l266.286 266.286q5.714 5.714 13.143 5.714t13.143-5.714l266.286-266.286q5.714-5.714 5.714-13.143t-5.714-13.143l-28.571-28.571q-5.714-5.714-13.143-5.714t-13.143 5.714l-224.571 224.571-224.571-224.571q-5.714-5.714-13.143-5.714t-13.143 5.714l-28.571 28.571q-5.714 5.714-5.714 13.143zM44 420.571q0 7.429 5.714 13.143l266.286 266.286q5.714 5.714 13.143 5.714t13.143-5.714l266.286-266.286q5.714-5.714 5.714-13.143t-5.714-13.143l-28.571-28.571q-5.714-5.714-13.143-5.714t-13.143 5.714l-224.571 224.571-224.571-224.571q-5.714-5.714-13.143-5.714t-13.143 5.714l-28.571 28.571q-5.714 5.714-5.714 13.143z" horiz-adv-x="658" data-tags="angle-double-up" />
<glyph unicode="doubleright" d="M7.429 164.571q0 7.429 5.714 13.143l224.571 224.571-224.571 224.571q-5.714 5.714-5.714 13.143t5.714 13.143l28.571 28.571q5.714 5.714 13.143 5.714t13.143-5.714l266.286-266.286q5.714-5.714 5.714-13.143t-5.714-13.143l-266.286-266.286q-5.714-5.714-13.143-5.714t-13.143 5.714l-28.571 28.571q-5.714 5.714-5.714 13.143zM226.857 164.571q0 7.429 5.714 13.143l224.571 224.571-224.571 224.571q-5.714 5.714-5.714 13.143t5.714 13.143l28.571 28.571q5.714 5.714 13.143 5.714t13.143-5.714l266.286-266.286q5.714-5.714 5.714-13.143t-5.714-13.143l-266.286-266.286q-5.714-5.714-13.143-5.714t-13.143 5.714l-28.571 28.571q-5.714 5.714-5.714 13.143z" horiz-adv-x="585" data-tags="angle-double-right" />
<glyph unicode="doubleleft" d="M25.714 402.286q0 7.429 5.714 13.143l266.286 266.286q5.714 5.714 13.143 5.714t13.143-5.714l28.571-28.571q5.714-5.714 5.714-13.143t-5.714-13.143l-224.571-224.571 224.571-224.571q5.714-5.714 5.714-13.143t-5.714-13.143l-28.571-28.571q-5.714-5.714-13.143-5.714t-13.143 5.714l-266.286 266.286q-5.714 5.714-5.714 13.143zM245.143 402.286q0 7.429 5.714 13.143l266.286 266.286q5.714 5.714 13.143 5.714t13.143-5.714l28.571-28.571q5.714-5.714 5.714-13.143t-5.714-13.143l-224.571-224.571 224.571-224.571q5.714-5.714 5.714-13.143t-5.714-13.143l-28.571-28.571q-5.714-5.714-13.143-5.714t-13.143 5.714l-266.286 266.286q-5.714 5.714-5.714 13.143z" horiz-adv-x="585" data-tags="angle-double-left" />
<glyph unicode="doubledown" d="M44 457.143q0 7.429 5.714 13.143l28.571 28.571q5.714 5.714 13.143 5.714t13.143-5.714l224.571-224.571 224.571 224.571q5.714 5.714 13.143 5.714t13.143-5.714l28.571-28.571q5.714-5.714 5.714-13.143t-5.714-13.143l-266.286-266.286q-5.714-5.714-13.143-5.714t-13.143 5.714l-266.286 266.286q-5.714 5.714-5.714 13.143zM44 676.571q0 7.429 5.714 13.143l28.571 28.571q5.714 5.714 13.143 5.714t13.143-5.714l224.571-224.571 224.571 224.571q5.714 5.714 13.143 5.714t13.143-5.714l28.571-28.571q5.714-5.714 5.714-13.143t-5.714-13.143l-266.286-266.286q-5.714-5.714-13.143-5.714t-13.143 5.714l-266.286 266.286q-5.714 5.714-5.714 13.143z" horiz-adv-x="658" data-tags="angle-double-down" />
<glyph unicode="copy" d="M969.143 731.428q22.857 0 38.857-16t16-38.857v-694.857q0-22.857-16-38.857t-38.857-16h-548.571q-22.857 0-38.857 16t-16 38.857v164.571h-310.857q-22.857 0-38.857 16t-16 38.857v384q0 22.857 11.429 50.286t27.429 43.429l233.143 233.143q16 16 43.429 27.429t50.286 11.429h237.714q22.857 0 38.857-16t16-38.857v-187.429q38.857 22.857 73.143 22.857h237.714zM658.286 609.714l-170.857-170.857h170.857v170.857zM292.571 829.143l-170.857-170.857h170.857v170.857zM404.571 459.428l180.571 180.571v237.714h-219.429v-237.714q0-22.857-16-38.857t-38.857-16h-237.714v-365.714h292.571v146.286q0 22.857 11.429 50.286t27.429 43.429zM950.857 0v658.286h-219.429v-237.714q0-22.857-16-38.857t-38.857-16h-237.714v-365.714h512z" data-tags="copy, files-o" />
<glyph unicode="closesmall" d="M62.857 195.428q0 22.857 16 38.857l168 168-168 168q-16 16-16 38.857t16 38.857l77.714 77.714q16 16 38.857 16t38.857-16l168-168 168 168q16 16 38.857 16t38.857-16l77.714-77.714q16-16 16-38.857t-16-38.857l-168-168 168-168q16-16 16-38.857t-16-38.857l-77.714-77.714q-16-16-38.857-16t-38.857 16l-168 168-168-168q-16-16-38.857-16t-38.857 16l-77.714 77.714q-16 16-16 38.857z" horiz-adv-x="805" data-tags="times" />
<glyph unicode="close" d="M1014.662 137.34c-0.004 0.004-0.008 0.008-0.012 0.010l-310.644 310.65 310.644 310.65c0.004 0.004 0.008 0.006 0.012 0.010 3.344 3.346 5.762 7.254 7.312 11.416 4.246 11.376 1.824 24.682-7.324 33.83l-146.746 146.746c-9.148 9.146-22.45 11.566-33.828 7.32-4.16-1.55-8.070-3.968-11.418-7.31 0-0.004-0.004-0.006-0.008-0.010l-310.648-310.652-310.648 310.65c-0.004 0.004-0.006 0.006-0.010 0.010-3.346 3.342-7.254 5.76-11.414 7.31-11.38 4.248-24.682 1.826-33.83-7.32l-146.748-146.748c-9.148-9.148-11.568-22.452-7.322-33.828 1.552-4.16 3.97-8.072 7.312-11.416 0.004-0.002 0.006-0.006 0.010-0.010l310.65-310.648-310.65-310.652c-0.002-0.004-0.006-0.006-0.008-0.010-3.342-3.346-5.76-7.254-7.314-11.414-4.248-11.376-1.826-24.682 7.322-33.83l146.748-146.746c9.15-9.148 22.452-11.568 33.83-7.322 4.16 1.552 8.070 3.97 11.416 7.312 0.002 0.004 0.006 0.006 0.010 0.010l310.648 310.65 310.648-310.65c0.004-0.002 0.008-0.006 0.012-0.008 3.348-3.344 7.254-5.762 11.414-7.314 11.378-4.246 24.684-1.826 33.828 7.322l146.746 146.748c9.148 9.148 11.57 22.454 7.324 33.83-1.552 4.16-3.97 8.068-7.314 11.414z" data-tags="close, cancel, quit, remove, cross" />
<glyph unicode="clock" d="M0 438.857q0 119.429 58.857 220.286t159.714 159.714 220.286 58.857 220.286-58.857 159.714-159.714 58.857-220.286-58.857-220.286-159.714-159.714-220.286-58.857-220.286 58.857-159.714 159.714-58.857 220.286zM128 438.857q0-84.571 41.714-156t113.143-113.143 156-41.714 156 41.714 113.143 113.143 41.714 156-41.714 156-113.143 113.143-156 41.714-156-41.714-113.143-113.143-41.714-156zM292.571 384v36.571q0 8 5.143 13.143t13.143 5.143h128v201.143q0 8 5.143 13.143t13.143 5.143h36.571q8 0 13.143-5.143t5.143-13.143v-256q0-8-5.143-13.143t-13.143-5.143h-182.857q-8 0-13.143 5.143t-5.143 13.143z" data-tags="clock-o" />
<glyph unicode="city" d="M832 32v704h-320v224h-320v-928h-128v-96h896v96h-128zM288 864h128v-832h-128v832zM512 32v608h224v-608h-224zM320 832h64v-64h-64v64zM320 736h64v-64h-64v64zM320 640h64v-64h-64v64zM544 608h64v-64h-64v64zM640 608h64v-64h-64v64zM544 512h64v-64h-64v64zM640 512h64v-64h-64v64zM640 416h64v-64h-64v64z" data-tags="ZelenaPosta_Icon_DigitalneMesto" />
<glyph unicode="chevronup" d="M51.429 216.286q0 15.143 10.857 26l424 423.429q10.857 10.857 25.714 10.857t25.714-10.857l424-423.429q10.857-10.857 10.857-26t-10.857-26l-94.857-94.286q-10.857-10.857-25.714-10.857t-25.714 10.857l-303.429 303.429-303.429-303.429q-10.857-10.857-25.714-10.857t-25.714 10.857l-94.857 94.286q-10.857 10.857-10.857 26z" data-tags="chevron-up" />
<glyph unicode="chevronright" d="M51.429 146.286q0 14.857 10.857 25.714l303.429 303.429-303.429 303.429q-10.857 10.857-10.857 25.714t10.857 25.714l94.857 94.857q10.857 10.857 25.714 10.857t25.714-10.857l424-424q10.857-10.857 10.857-25.714t-10.857-25.714l-424-424q-10.857-10.857-25.714-10.857t-25.714 10.857l-94.857 94.857q-10.857 10.857-10.857 25.714z" horiz-adv-x="731" data-tags="chevron-right" />
<glyph unicode="chevronleft" d="M88 475.428q0 14.857 10.857 25.714l424 424q10.857 10.857 25.714 10.857t25.714-10.857l94.857-94.857q10.857-10.857 10.857-25.714t-10.857-25.714l-303.429-303.429 303.429-303.429q10.857-10.857 10.857-25.714t-10.857-25.714l-94.857-94.857q-10.857-10.857-25.714-10.857t-25.714 10.857l-424 424q-10.857 10.857-10.857 25.714z" horiz-adv-x="731" data-tags="chevron-left" />
<glyph unicode="chevrondown" d="M51.429 515.143q0 15.143 10.857 26l94.857 94.286q10.857 10.857 25.714 10.857t25.714-10.857l303.429-303.429 303.429 303.429q10.857 10.857 25.714 10.857t25.714-10.857l94.857-94.286q10.857-10.857 10.857-26t-10.857-26l-424-423.429q-10.857-10.857-25.714-10.857t-25.714 10.857l-424 423.429q-10.857 10.857-10.857 26z" data-tags="chevron-down" />
<glyph unicode="check" d="M69.143 420.571q0 22.857 16 38.857l77.714 77.714q16 16 38.857 16t38.857-16l168-168.571 374.857 375.429q16 16 38.857 16t38.857-16l77.714-77.714q16-16 16-38.857t-16-38.857l-491.429-491.429q-16-16-38.857-16t-38.857 16l-284.571 284.571q-16 16-16 38.857z" data-tags="check" />
<glyph unicode="caretup" d="M0 256q0 14.857 10.857 25.714l256 256q10.857 10.857 25.714 10.857t25.714-10.857l256-256q10.857-10.857 10.857-25.714t-10.857-25.714-25.714-10.857h-512q-14.857 0-25.714 10.857t-10.857 25.714z" horiz-adv-x="585" data-tags="caret-up" />
<glyph unicode="caretright" d="M0 182.857v512q0 14.857 10.857 25.714t25.714 10.857 25.714-10.857l256-256q10.857-10.857 10.857-25.714t-10.857-25.714l-256-256q-10.857-10.857-25.714-10.857t-25.714 10.857-10.857 25.714z" horiz-adv-x="366" data-tags="caret-right" />
<glyph unicode="caretleft" d="M36.571 438.857q0 14.857 10.857 25.714l256 256q10.857 10.857 25.714 10.857t25.714-10.857 10.857-25.714v-512q0-14.857-10.857-25.714t-25.714-10.857-25.714 10.857l-256 256q-10.857 10.857-10.857 25.714z" horiz-adv-x="366" data-tags="caret-left" />
<glyph unicode="caretdown" d="M0 548.571q0 14.857 10.857 25.714t25.714 10.857h512q14.857 0 25.714-10.857t10.857-25.714-10.857-25.714l-256-256q-10.857-10.857-25.714-10.857t-25.714 10.857l-256 256q-10.857 10.857-10.857 25.714z" horiz-adv-x="585" data-tags="caret-down" />
<glyph unicode="calendar" d="M0 0v731.429q0 29.714 21.714 51.429t51.429 21.714h73.143v54.857q0 37.714 26.857 64.571t64.571 26.857h36.571q37.714 0 64.571-26.857t26.857-64.571v-54.857h219.429v54.857q0 37.714 26.857 64.571t64.571 26.857h36.571q37.714 0 64.571-26.857t26.857-64.571v-54.857h73.143q29.714 0 51.429-21.714t21.714-51.429v-731.429q0-29.714-21.714-51.429t-51.429-21.714h-804.571q-29.714 0-51.429 21.714t-21.714 51.429zM73.143 0h164.571v164.571h-164.571v-164.571zM73.143 201.143h164.571v182.857h-164.571v-182.857zM73.143 420.571h164.571v164.571h-164.571v-164.571zM219.429 694.857q0-7.429 5.429-12.857t12.857-5.429h36.571q7.429 0 12.857 5.429t5.429 12.857v164.571q0 7.429-5.429 12.857t-12.857 5.429h-36.571q-7.429 0-12.857-5.429t-5.429-12.857v-164.571zM274.286 0h182.857v164.571h-182.857v-164.571zM274.286 201.143h182.857v182.857h-182.857v-182.857zM274.286 420.571h182.857v164.571h-182.857v-164.571zM493.714 0h182.857v164.571h-182.857v-164.571zM493.714 201.143h182.857v182.857h-182.857v-182.857zM493.714 420.571h182.857v164.571h-182.857v-164.571zM658.286 694.857q0-7.429 5.429-12.857t12.857-5.429h36.571q7.429 0 12.857 5.429t5.429 12.857v164.571q0 7.429-5.429 12.857t-12.857 5.429h-36.571q-7.429 0-12.857-5.429t-5.429-12.857v-164.571zM713.143 0h164.571v164.571h-164.571v-164.571zM713.143 201.143h164.571v182.857h-164.571v-182.857zM713.143 420.571h164.571v164.571h-164.571v-164.571z" horiz-adv-x="951" data-tags="calendar" />
<glyph unicode="bellfill" d="M0 146.286q108.571 92 164 227.143t55.429 284.857q0 94.286 54.857 149.714t150.857 66.857q-4.571 10.286-4.571 21.143 0 22.857 16 38.857t38.857 16 38.857-16 16-38.857q0-10.857-4.571-21.143 96-11.429 150.857-66.857t54.857-149.714q0-149.714 55.429-284.857t164-227.143q0-29.714-21.714-51.429t-51.429-21.714h-256q0-60.571-42.857-103.429t-103.429-42.857-103.429 42.857-42.857 103.429h-256q-29.714 0-51.429 21.714t-21.714 51.429zM374.857 73.143q0-41.714 29.429-71.143t71.143-29.429q9.143 0 9.143 9.143t-9.143 9.143q-33.714 0-58 24.286t-24.286 58q0 9.143-9.143 9.143t-9.143-9.143z" horiz-adv-x="951" data-tags="bell" />
<glyph unicode="bell" d="M0 146.286q108.571 92 164 227.143t55.429 284.857q0 94.286 54.857 149.714t150.857 66.857q-4.571 10.286-4.571 21.143 0 22.857 16 38.857t38.857 16 38.857-16 16-38.857q0-10.857-4.571-21.143 96-11.429 150.857-66.857t54.857-149.714q0-149.714 55.429-284.857t164-227.143q0-29.714-21.714-51.429t-51.429-21.714h-256q0-60.571-42.857-103.429t-103.429-42.857-103.429 42.857-42.857 103.429h-256q-29.714 0-51.429 21.714t-21.714 51.429zM104.571 146.286h741.714q-93.714 103.429-140.857 235.143t-47.143 276.857q0 146.286-182.857 146.286t-182.857-146.286q0-145.143-47.143-276.857t-140.857-235.143zM374.857 73.143q0-41.714 29.429-71.143t71.143-29.429q9.143 0 9.143 9.143t-9.143 9.143q-33.714 0-58 24.286t-24.286 58q0 9.143-9.143 9.143t-9.143-9.143z" horiz-adv-x="951" data-tags="bell-o" />
<glyph unicode="barchart" d="M365.714 438.857v-292.571h-146.286v292.571h146.286zM585.143 731.428v-585.143h-146.286v585.143h146.286zM1170.286 73.143v-73.143h-1170.286v877.714h73.143v-804.571h1097.143zM804.571 585.143v-438.857h-146.286v438.857h146.286zM1024 804.571v-658.286h-146.286v658.286h146.286z" horiz-adv-x="1170" data-tags="bar-chart, bar-chart-o" />
<glyph unicode="arrowup" d="M877.254 557.254l-320 320c-24.992 24.994-65.514 24.994-90.508 0l-320-320c-24.994-24.994-24.994-65.516 0-90.51 24.994-24.996 65.516-24.996 90.51 0l210.744 210.746v-613.49c0-35.346 28.654-64 64-64s64 28.654 64 64v613.49l210.746-210.746c12.496-12.496 28.876-18.744 45.254-18.744s32.758 6.248 45.254 18.746c24.994 24.994 24.994 65.514 0 90.508z" data-tags="arrow-up, upload, top" />
<glyph unicode="arrowright" d="M621.254 82.746l320 320c24.994 24.992 24.994 65.516 0 90.51l-320 320c-24.994 24.992-65.516 24.992-90.51 0-24.994-24.994-24.994-65.516 0-90.51l210.746-210.746h-613.49c-35.346 0-64-28.654-64-64s28.654-64 64-64h613.49l-210.746-210.746c-12.496-12.496-18.744-28.876-18.744-45.254s6.248-32.758 18.744-45.254c24.994-24.994 65.516-24.994 90.51 0z" data-tags="arrow-right, right, next" />
<glyph unicode="arrowleft" d="M402.746 813.254l-320-320c-24.994-24.992-24.994-65.516 0-90.508l320-320c24.994-24.992 65.516-24.992 90.51 0 24.996 24.992 24.996 65.516 0 90.508l-210.748 210.746h613.492c35.346 0 64 28.652 64 64 0 35.346-28.654 64-64 64h-613.492l210.746 210.746c12.496 12.496 18.746 28.876 18.746 45.254s-6.248 32.758-18.744 45.254c-24.996 24.994-65.516 24.994-90.51 0z" data-tags="arrow-left, left, previous" />
<glyph unicode="arrowdown" d="M146.746 338.746l320-320c24.992-24.994 65.516-24.994 90.51 0l320 320c24.992 24.994 24.992 65.516 0 90.51-24.994 24.994-65.516 24.994-90.51 0l-210.746-210.746v613.49c0 35.346-28.654 64-64 64s-64-28.654-64-64v-613.49l-210.746 210.746c-12.496 12.496-28.876 18.744-45.254 18.744s-32.758-6.248-45.254-18.744c-24.994-24.994-24.994-65.516 0-90.51z" data-tags="arrow-down, download, bottom" />
<glyph unicode="apple" d="M796 256.571q-22.286-71.429-70.286-142.857-73.714-112-146.857-112-28 0-80 18.286-49.143 18.286-86.286 18.286-34.857 0-81.143-18.857-46.286-19.429-75.429-19.429-86.857 0-172 148-84 149.143-84 287.429 0 130.286 64.571 213.714 64 82.286 162.286 82.286 41.143 0 101.143-17.143 59.429-17.143 78.857-17.143 25.714 0 81.714 19.429 58.286 19.429 98.857 19.429 68 0 121.714-37.143 29.714-20.571 59.429-57.143-45.143-38.286-65.143-67.429-37.143-53.714-37.143-118.286 0-70.857 39.429-127.429t90.286-72zM581.143 926.857q0-34.857-16.571-77.714-17.143-42.857-53.143-78.857-30.857-30.857-61.714-41.143-21.143-6.286-59.429-9.714 1.714 85.143 44.571 146.857 42.286 61.143 142.857 84.571 0.571-1.714 1.429-6.286t1.429-6.286q0-2.286 0.286-5.714t0.286-5.714z" horiz-adv-x="805" data-tags="apple" />
<glyph unicode="android" d="M281.714 674.857q9.143 0 15.714 6.571t6.571 15.714-6.571 15.714-15.714 6.571-15.429-6.571-6.286-15.714 6.286-15.714 15.429-6.571zM522.857 674.857q9.143 0 15.429 6.571t6.286 15.714-6.286 15.714-15.429 6.571-15.714-6.571-6.571-15.714 6.571-15.714 15.714-6.571zM58.857 569.714q24 0 41.143-17.143t17.143-41.143v-245.714q0-24.571-16.857-41.714t-41.429-17.143-41.714 17.143-17.143 41.714v245.714q0 24 17.143 41.143t41.714 17.143zM664.571 558.857v-380.571q0-26.286-18.286-44.571t-44-18.286h-42.857v-129.714q0-24.571-17.143-41.714t-41.714-17.143-41.714 17.143-17.143 41.714v129.714h-78.857v-129.714q0-24.571-17.143-41.714t-41.714-17.143q-24 0-41.143 17.143t-17.143 41.714l-0.571 129.714h-42.286q-26.286 0-44.571 18.286t-18.286 44.571v380.571h524.571zM532 790.286q61.143-31.429 97.714-87.714t36.571-123.143h-528.571q0 66.857 36.571 123.143t98.286 87.714l-40.571 74.857q-4 7.429 2.857 11.429 7.429 3.429 11.429-3.429l41.143-75.429q54.286 24 114.857 24t114.857-24l41.143 75.429q4 6.857 11.429 3.429 6.857-4 2.857-11.429zM804.571 511.428v-245.714q0-24.571-17.143-41.714t-41.714-17.143q-24 0-41.143 17.143t-17.143 41.714v245.714q0 24.571 17.143 41.429t41.143 16.857q24.571 0 41.714-16.857t17.143-41.429z" horiz-adv-x="805" data-tags="android" />
</font>
</defs>
</svg>
